<svg width="1024" height="1024" viewBox="0 0 1024 1024" fill="none" xmlns="http://www.w3.org/2000/svg">
<path d="M279.248 578.264C276.743 581.788 274.226 585.302 271.694 588.807L271.771 594.256C275.574 589.023 279.4 583.692 283.248 578.263H279.248V578.264ZM457.391 301.866C456.862 300.578 456.354 299.282 455.88 297.977C414.153 369.812 361.582 457.056 310.174 533.475C310.689 534.634 311.225 535.784 311.782 536.923C363.057 460.831 415.552 373.823 457.391 301.866ZM460.401 308.468C421.691 383.384 372.494 476.095 325.367 557.812C325.761 558.28 326.134 558.76 326.537 559.222H328.317C375.012 478.241 423.716 386.518 462.246 311.999C461.608 310.834 460.993 309.657 460.401 308.468ZM527.922 182.554C530.329 177.709 532.258 173.814 533.651 170.995H560.669L566.565 139.812L566.835 138.382H523.079L523.936 142.911H560.244V145.237H524.376L528.862 168.964C526.694 172.91 524.186 177.46 521.366 182.553L527.922 182.554ZM874.432 503.043H857.554L856.948 545.777H875.038L874.432 503.043ZM871.53 298.209H867.471V287.638C874.878 284.916 906.261 285.302 922.399 292.773C940.1 300.968 956.571 298.55 958.457 291.462C940.838 294.002 932.56 280.972 948.623 284.578C974.868 290.253 965.014 270.811 965.014 270.811C965.014 270.811 963.211 282.612 931.906 269.499C906.679 258.933 879.336 261.83 869.665 263.353C869.784 262.985 869.865 262.6 869.865 262.192C869.865 261.189 869.467 260.226 868.758 259.517C868.048 258.808 867.086 258.409 866.083 258.409C865.08 258.409 864.117 258.808 863.408 259.517C862.699 260.226 862.3 261.189 862.3 262.192C862.3 263.789 863.294 265.148 864.693 265.703V298.209H860.457L860.056 326.563H871.934L871.53 298.209ZM936.587 499.057C937.747 499.057 938.696 498.108 938.696 496.948V490.095C938.696 488.935 937.747 487.987 936.587 487.987H931.617C894.055 446.291 894.958 382.267 934.278 341.618H936.587C937.747 341.618 938.696 340.669 938.696 339.51V332.656C938.696 331.496 937.747 330.548 936.587 330.548H782.135C780.975 330.548 780.027 331.496 780.027 332.656V339.51C780.027 340.191 780.359 340.793 780.864 341.178H846.71V344.342H779.96C743.933 384.217 743.117 444.569 777.55 485.352H846.71V488.514H780.316C780.388 488.593 780.453 488.675 780.525 488.753C780.219 489.12 780.027 489.584 780.027 490.097V496.95C780.027 498.11 780.975 499.058 782.135 499.058L936.587 499.057ZM869.113 341.178H881.106V344.342H869.113V341.178ZM851.454 341.178H863.447V344.342H851.454V341.178ZM806.003 390.759C810.476 378.941 829.077 371.37 841.751 371.402C854.581 371.372 856.655 378.941 852.183 390.759C848.705 399.624 842.485 407.653 834.152 411.05C834.14 412.914 834.219 414.777 834.391 416.633C834.558 418.406 833.458 419.846 831.814 419.847H831.468C829.825 419.847 828.256 418.406 828.086 416.633C827.963 415.302 827.888 413.967 827.86 412.63C827.017 412.719 826.158 412.772 825.283 412.767C824.43 412.771 823.577 412.728 822.729 412.638C822.762 413.972 822.827 415.305 822.956 416.635C823.124 418.407 822.018 419.847 820.38 419.849H820.033C818.398 419.849 816.818 418.407 816.652 416.635C816.481 414.785 816.401 412.929 816.413 411.072C808.046 407.684 802.518 399.64 806.003 390.759ZM863.447 488.514H851.454V485.352H863.447V488.514ZM864.345 450.757C861.292 450.003 858.116 447.801 857.447 445.728C857.365 445.486 857.321 445.233 857.315 444.977C848.681 442.511 840.095 439.878 831.562 437.081C826.275 439.707 820.993 442.344 815.715 444.989C816.054 445.218 816.386 445.465 816.705 445.728C819.206 447.801 820.153 450.005 818.632 450.757C817.114 451.506 813.543 450.616 810.858 448.648C808.995 447.289 808.142 445.745 808.34 444.632C806.635 444.471 804.52 443.557 802.902 442.071C800.558 439.923 800.31 437.371 802.152 436.459C804.002 435.545 807.092 436.673 809.25 438.903C809.525 439.187 809.772 439.475 809.994 439.761C813.849 437.838 817.821 435.867 821.924 433.851C814.675 431.36 807.465 428.758 800.296 426.045C800.331 426.363 800.339 426.68 800.314 426.99C800.113 429.391 797.973 430.531 795.342 429.586C792.715 428.642 790.741 425.928 791.134 423.489C791.4 421.804 792.658 420.731 794.211 420.541C792.972 419.232 792.358 417.384 792.868 415.669C793.597 413.191 796.217 411.98 798.515 412.973C800.823 413.964 802.089 416.782 801.547 419.244C801.48 419.543 801.384 419.834 801.258 420.113C810.331 423.766 819.473 427.245 828.678 430.551C835.98 427.001 843.318 423.525 850.691 420.124C850.475 419.848 850.285 419.554 850.123 419.244C848.836 416.782 849.795 413.965 852.064 412.973C854.339 411.98 856.909 413.191 858.009 415.669C858.762 417.384 858.67 419.232 857.863 420.541C859.472 420.732 861.09 421.804 862.088 423.489C863.527 425.928 863.274 428.643 861.322 429.586C859.381 430.531 856.327 429.39 854.703 426.99C854.504 426.698 854.333 426.388 854.19 426.064C848.812 428.626 843.45 431.222 838.104 433.851C844.056 435.894 850.034 437.858 856.037 439.742C855.927 439.472 855.849 439.191 855.804 438.903C855.474 436.675 857.569 435.545 860.298 436.459C863.028 437.371 865.501 439.923 866.019 442.071C866.374 443.558 865.611 444.472 864.152 444.632C866.003 445.744 867.567 447.289 868.162 448.648C869.019 450.616 867.401 451.506 864.345 450.757ZM869.113 485.351H881.106V488.513H869.113V485.351Z" fill="#0D0C0C"/>
<path d="M816.745 402.22C820.494 402.235 824.196 396.805 826.707 390.491C829.176 384.164 829.507 379.546 825.764 379.546C822.063 379.544 815.687 384.164 813.22 390.491C810.705 396.805 813.041 402.235 816.745 402.22ZM835.217 402.22C838.963 402.235 842.668 396.805 845.179 390.491C847.648 384.164 847.985 379.546 844.236 379.546C840.534 379.544 834.163 384.164 831.692 390.491C829.18 396.805 831.517 402.235 835.217 402.22ZM554.61 107.854C564.389 104.26 605.818 104.77 627.122 114.633C650.491 125.452 672.235 122.259 674.724 112.901C651.464 116.255 640.538 99.0543 661.741 103.813C696.387 111.306 683.378 85.639 683.378 85.639C683.378 85.639 680.999 101.217 639.671 83.9078C606.368 69.9583 570.272 73.7835 557.505 75.7937C557.664 75.3075 557.77 74.7986 557.77 74.2605C557.77 72.9359 557.244 71.6656 556.307 70.7289C555.37 69.7923 554.1 69.2661 552.775 69.2661C551.451 69.2661 550.18 69.7923 549.244 70.7289C548.307 71.6656 547.781 72.9359 547.781 74.2605C547.781 76.369 549.092 78.164 550.941 78.8961V135.714H554.609V107.854H554.61ZM533.332 112.601C534.228 112.407 535.077 112.036 535.829 111.511C536.581 110.986 537.221 110.316 537.712 109.541C538.202 108.766 538.534 107.901 538.687 106.997C538.841 106.093 538.813 105.167 538.605 104.274C538.397 103.38 538.013 102.537 537.477 101.793C536.94 101.05 536.261 100.42 535.478 99.9412C534.696 99.4624 533.826 99.144 532.92 99.0045C532.013 98.865 531.088 98.9073 530.198 99.1287C528.435 99.5672 526.916 100.681 525.968 102.23C525.02 103.78 524.719 105.639 525.131 107.408C525.542 109.177 526.633 110.713 528.168 111.685C529.702 112.657 531.557 112.986 533.332 112.601Z" fill="#0D0C0C"/>
<path d="M546.403 135.716C546.409 135.692 546.415 135.67 546.419 135.646C547.214 128.816 546.765 124.778 544.672 118.575C543.355 114.744 540.408 113.158 537.941 113.167C537.648 113.098 537.345 113.088 537.048 113.139L525.045 115.18L520.705 107.527H523.286V107.709C523.286 107.799 523.322 107.884 523.385 107.948C523.448 108.011 523.534 108.047 523.624 108.047C523.713 108.047 523.799 108.011 523.862 107.948C523.926 107.884 523.961 107.799 523.961 107.709V105.206C523.961 105.116 523.926 105.031 523.862 104.967C523.799 104.904 523.713 104.868 523.624 104.868C523.534 104.868 523.448 104.904 523.385 104.967C523.322 105.031 523.286 105.116 523.286 105.206V105.388H519.413V105.185H513.486V105.388H513.101V104.923H503.663V104.621C503.663 104.532 503.628 104.446 503.565 104.383C503.501 104.319 503.415 104.284 503.326 104.284C503.236 104.284 503.151 104.319 503.087 104.383C503.024 104.446 502.988 104.532 502.988 104.621V108.296C502.988 108.481 503.14 108.634 503.326 108.634C503.415 108.633 503.501 108.598 503.564 108.535C503.627 108.471 503.663 108.386 503.663 108.296V107.995H513.101V107.53H513.486V107.733H516.198C516.123 108.225 516.215 108.727 516.458 109.161L521.911 118.773C522.139 119.174 522.485 119.496 522.902 119.694C523.319 119.892 523.788 119.957 524.243 119.879L531.395 118.664L527.883 122.213L517.677 121.229C517.116 121.179 516.559 121.351 516.124 121.709C515.69 122.067 515.414 122.582 515.357 123.141C515.303 123.702 515.474 124.262 515.832 124.697C516.191 125.132 516.708 125.407 517.269 125.461L528.48 126.541C528.794 126.571 529.111 126.531 529.408 126.424C529.704 126.316 529.973 126.144 530.195 125.919L534.063 122.011C534.872 125.99 535.927 131.124 535.484 135.717L546.403 135.716ZM253.582 373.43L253.181 401.784H265.059L264.658 373.43H260.597V362.859C268.005 360.137 299.387 360.523 315.525 367.994C333.226 376.189 349.698 373.771 351.583 366.683C333.964 369.223 325.686 356.193 341.748 359.799C367.993 365.474 358.138 346.032 358.138 346.032C358.138 346.032 356.336 357.833 325.031 344.72C299.804 334.154 272.461 337.051 262.79 338.574C262.909 338.206 262.99 337.821 262.99 337.413C262.99 336.41 262.592 335.448 261.882 334.738C261.173 334.029 260.211 333.63 259.208 333.63C258.204 333.63 257.242 334.029 256.533 334.738C255.824 335.448 255.425 336.41 255.425 337.413C255.425 339.01 256.419 340.369 257.818 340.925V373.43H253.582ZM582.545 652.493C582.344 650.599 582.156 648.726 581.959 646.841H578.681C578.898 648.933 579.108 651.013 579.331 653.114C580.364 652.742 581.448 652.532 582.545 652.493ZM564.344 373.16H567.604C567.599 362.793 567.659 352.427 567.786 342.06H564.525C564.398 352.427 564.338 362.793 564.344 373.16ZM614.297 654.261C613.942 651.778 613.598 649.309 613.251 646.839H609.959C610.436 650.251 610.92 653.674 611.415 657.111C612.186 655.987 613.164 655.02 614.297 654.261ZM598.684 291.741C597.782 275.616 597.083 259.48 596.589 243.337C593.055 259.31 593.737 276.052 598.684 291.741ZM597.039 241.312C598.634 256.832 601.191 279.149 605.095 307.1C606.425 309.618 607.872 312.073 609.43 314.457C604.125 277.457 601.078 249.487 599.488 232.999C598.543 235.73 597.725 238.504 597.039 241.312ZM618.971 324.479H619.762C620.747 324.479 621.663 324.754 622.473 325.196C610.687 272.343 604.713 236.533 602.844 224.659C601.985 226.535 601.19 228.44 600.46 230.371C602.966 245.636 608.756 278.535 618.971 324.479ZM622.754 341.19C623.981 346.522 625.262 352 626.6 357.623C623.523 359.329 620.215 360.83 616.787 362.139C616.625 361.154 616.456 360.146 616.297 359.173C615.339 353.317 614.43 347.614 613.564 342.06H610.263C611.152 347.764 612.085 353.625 613.071 359.648C613.265 360.832 613.469 362.059 613.668 363.263C610.502 364.346 607.292 365.299 604.048 366.121C603.341 358.105 602.675 350.085 602.048 342.062H598.777C599.422 350.345 600.111 358.626 600.843 366.902C596.929 367.803 592.984 368.567 589.017 369.193C588.707 360.151 588.448 351.108 588.241 342.063H584.979L585.083 346.448C585.263 353.815 585.492 361.576 585.77 369.679C577.225 370.884 571.194 371.158 571.05 371.163L571.132 373.161H584.655L585.887 372.995L585.893 373.161H589.156L589.132 372.517C592.849 371.939 596.917 371.192 601.137 370.225C601.224 371.2 601.311 372.176 601.401 373.161H604.676L604.343 369.453C607.67 368.618 610.962 367.649 614.211 366.549C614.572 368.718 614.945 370.932 615.323 373.161H618.63C618.186 370.544 617.753 367.966 617.33 365.431C620.81 364.123 624.202 362.629 627.387 360.919L627.751 362.441C628.586 365.92 629.461 369.514 630.354 373.161H633.711C632.756 369.267 631.822 365.435 630.933 361.731C629.011 353.725 627.131 345.709 625.293 337.683C624.942 339.141 624.029 340.401 622.754 341.19ZM655.109 466.431C652.3 468.004 649.42 469.446 646.478 470.753C646.126 472.076 645.791 473.404 645.474 474.736C649.077 473.227 652.6 471.531 656.027 469.654C659.273 480.978 662.594 492.28 665.988 503.561C659.848 506.98 653.148 509.899 646.239 512.395C644.84 506.203 643.462 500.006 642.107 493.805C641.682 497.489 641.385 501.186 641.215 504.891C641.85 507.741 642.488 510.598 643.142 513.485C642.45 513.72 641.756 513.952 641.061 514.18C641.074 515.31 641.1 516.441 641.137 517.57C642.05 517.277 642.961 516.978 643.87 516.671C646.373 527.672 648.945 538.657 651.585 549.626C649.695 550.26 647.793 550.866 645.888 551.441C646.152 552.492 646.429 553.541 646.716 554.586C648.6 554.019 650.481 553.424 652.355 552.799C655.024 563.832 657.762 574.848 660.57 585.847C660.105 586.003 659.638 586.159 659.172 586.313C659.682 587.287 660.198 588.257 660.729 589.221L661.381 589.003L662.028 591.521C663.852 594.708 665.788 597.83 667.831 600.882C666.695 596.541 665.576 592.228 664.476 587.941C673.144 584.875 681.555 581.224 689.19 576.889C692.936 588.173 696.757 599.432 700.652 610.666C696.394 613.024 692.026 615.178 687.562 617.12C688.88 617.533 690.073 618.224 691.087 619.114C694.705 617.478 698.259 615.703 701.739 613.791C705.234 623.835 708.788 633.859 712.403 643.862C706.931 647.036 701.099 649.903 695.051 652.494C696.778 652.548 698.466 653.025 699.965 653.885C704.596 651.798 709.125 649.49 713.535 646.969C717.664 658.343 721.929 669.851 726.341 681.493C727.317 680.984 728.276 680.446 729.219 679.88C696.666 593.971 671.939 514.906 653.746 449.592C653.053 451.233 652.387 452.886 651.749 454.55C652.86 458.513 653.98 462.473 655.109 466.431ZM646.968 515.589C653.94 513.091 660.716 510.168 666.952 506.75C670.085 517.117 673.356 527.722 676.776 538.556C669.991 542.49 662.459 545.789 654.682 548.556C652.042 537.583 649.471 526.594 646.968 515.589ZM663.66 584.773C660.854 573.778 658.118 562.766 655.452 551.736C663.288 548.967 670.892 545.666 677.782 541.736C681.169 552.422 684.622 563.088 688.14 573.732C680.607 578.067 672.268 581.712 663.66 584.773ZM668.014 662.038C668.049 662.387 668.068 662.741 668.068 663.099C668.068 663.92 667.966 664.718 667.788 665.485C672.215 664.219 676.642 662.841 681.025 661.341C681.89 664.356 682.766 667.383 683.648 670.416C683.693 670.356 683.738 670.287 683.782 670.23C684.251 669.526 684.86 668.939 685.552 668.483C684.2 666.209 683.752 663.51 684.296 660.922L684.105 660.261L684.502 660.118C684.99 658.456 685.877 656.939 687.085 655.699C685.799 656.186 684.506 656.661 683.208 657.127C682.227 653.686 681.253 650.255 680.293 646.841H676.904C677.97 650.633 679.044 654.422 680.126 658.21C676.12 659.583 672.081 660.859 668.014 662.038ZM597.188 678.403C599.873 678.145 602.876 677.829 606.144 677.447C606.457 676.146 606.813 675.022 607.194 674.043C603.581 674.478 599.963 674.867 596.34 675.211C596.651 676.153 596.937 677.208 597.188 678.403ZM631.28 670.476C631.851 671.25 632.425 672.224 632.958 673.48C637.21 672.716 641.45 671.882 645.675 670.979L645.755 671.363C646.012 670.945 646.269 670.561 646.527 670.231C646.995 669.536 647.597 668.941 648.298 668.483C647.33 666.854 646.819 664.995 646.818 663.101C646.818 662.45 646.886 661.816 646.997 661.198C646.021 656.387 645.064 651.602 644.125 646.842H640.802C642.178 653.833 643.582 660.818 645.015 667.797C640.453 668.771 635.874 669.664 631.28 670.476ZM353.294 611.958C351.733 612.029 350.455 615.01 347.475 617.778C344.495 620.545 342.152 619.269 342.152 619.269C342.152 619.269 342.649 622.108 344.849 622.817C345.919 623.163 347.738 623.523 350.007 623.803C349.648 625.009 349.553 626.277 349.729 627.523C349.904 628.768 350.345 629.961 351.022 631.021C351.7 632.081 352.597 632.982 353.654 633.664C354.711 634.346 355.902 634.792 357.147 634.973C358.391 635.153 359.66 635.064 360.867 634.71C362.074 634.357 363.191 633.747 364.141 632.924C365.092 632.1 365.854 631.082 366.376 629.937C366.898 628.793 367.167 627.55 367.165 626.292C367.165 625.427 367.035 624.592 366.801 623.803C369.071 623.523 370.888 623.162 371.959 622.817C374.159 622.108 374.656 619.269 374.656 619.269C374.656 619.269 372.314 620.545 369.334 617.778C366.353 615.01 365.075 612.029 363.514 611.958C361.953 611.888 360.676 613.298 358.404 613.512C356.132 613.298 354.855 611.887 353.294 611.958Z" fill="#0D0C0C"/>
<path d="M368.935 642.944L391.535 621.208C391.83 620.925 392.066 620.586 392.23 620.211C392.394 619.837 392.483 619.433 392.491 619.024C392.499 618.615 392.426 618.209 392.277 617.828C392.128 617.447 391.905 617.099 391.622 616.804C391.338 616.509 390.999 616.273 390.624 616.109C390.25 615.945 389.846 615.857 389.437 615.849C389.028 615.841 388.622 615.913 388.241 616.062C387.86 616.211 387.512 616.434 387.217 616.718L365.846 637.27H350.961L333.398 620.379C333.375 619.677 333.168 618.993 332.796 618.397C332.229 617.5 331.304 616.858 330.04 616.472C339.915 601.206 345.822 594.58 353.128 590.009C354.7 584.042 357.918 580.01 362.114 578.381C357.656 577.865 352.017 577.891 341.303 591.844C336.153 598.551 328.002 612.851 326.574 615.927C325.357 615.7 324.546 615.271 324.205 614.66C323.7 613.753 324.307 612.579 324.314 612.567L322.785 611.745C322.741 611.826 321.723 613.745 322.68 615.487C322.867 615.827 323.111 616.132 323.413 616.399C323.796 616.738 324.282 617.01 324.847 617.231C324.555 617.665 324.378 618.165 324.33 618.686C324.283 619.207 324.368 619.731 324.577 620.211L321.595 625.388L321.29 625.212C320.854 624.959 320.291 625.109 320.038 625.545C319.786 625.981 319.936 626.544 320.373 626.797L323.295 628.487C323.731 628.739 324.294 628.589 324.546 628.153C324.799 627.718 324.649 627.154 324.213 626.902L323.766 626.644L326.317 622.213L347.871 642.941V662.772L343.359 680.98C352.482 682.335 362.774 683.579 374.364 684.683L368.934 662.776V642.944H368.935ZM594.213 689.599C594.161 678.381 591.82 674.038 590.598 672.55C590.316 672.076 589.872 671.72 589.348 671.549C587.506 672.96 585.25 673.725 582.93 673.726C580.611 673.725 578.356 672.96 576.514 671.549C575.99 671.721 575.546 672.076 575.264 672.55C574.03 674.051 571.658 678.457 571.647 689.898C579.316 689.812 586.851 689.709 594.213 689.599ZM582.93 669.738C583.81 669.751 584.684 669.588 585.5 669.26C586.317 668.932 587.06 668.445 587.687 667.827C588.313 667.209 588.811 666.473 589.15 665.662C589.49 664.85 589.665 663.979 589.665 663.099C589.665 662.219 589.49 661.347 589.15 660.536C588.811 659.724 588.313 658.988 587.687 658.37C587.06 657.752 586.317 657.265 585.5 656.937C584.684 656.609 583.81 656.446 582.93 656.459C581.186 656.483 579.521 657.194 578.296 658.436C577.07 659.679 576.384 661.354 576.384 663.099C576.384 664.844 577.07 666.518 578.296 667.761C579.521 669.003 581.186 669.714 582.93 669.738ZM631.466 688.969C631.331 678.215 629.054 674.01 627.853 672.55C627.571 672.076 627.127 671.721 626.603 671.549C624.761 672.96 622.506 673.725 620.185 673.726C617.866 673.725 615.611 672.96 613.769 671.549C613.245 671.721 612.801 672.076 612.519 672.55C611.305 674.027 608.988 678.322 608.905 689.365C616.69 689.235 624.218 689.099 631.466 688.969ZM620.187 669.738C621.067 669.751 621.94 669.588 622.757 669.26C623.573 668.932 624.316 668.445 624.943 667.827C625.569 667.209 626.067 666.473 626.406 665.661C626.746 664.849 626.921 663.978 626.921 663.098C626.921 662.218 626.746 661.347 626.406 660.535C626.066 659.723 625.569 658.987 624.942 658.369C624.315 657.752 623.572 657.265 622.755 656.937C621.939 656.609 621.065 656.446 620.185 656.459C618.441 656.484 616.776 657.194 615.551 658.437C614.326 659.679 613.639 661.354 613.64 663.099C613.64 664.844 614.327 666.519 615.552 667.761C616.777 669.004 618.442 669.714 620.187 669.738ZM668.719 688.346C668.51 678.037 666.288 673.982 665.11 672.55C664.828 672.076 664.383 671.721 663.859 671.549C662.074 672.909 659.855 673.726 657.443 673.726C655.032 673.726 652.812 672.909 651.027 671.549C650.503 671.721 650.059 672.076 649.776 672.55C648.585 673.998 646.332 678.141 646.164 688.705C654.342 688.561 661.886 688.436 668.719 688.346ZM657.443 669.738C658.323 669.751 659.197 669.588 660.013 669.26C660.83 668.932 661.573 668.445 662.199 667.827C662.826 667.209 663.323 666.473 663.663 665.661C664.002 664.849 664.177 663.978 664.177 663.098C664.177 662.218 664.002 661.347 663.662 660.535C663.323 659.723 662.825 658.987 662.198 658.369C661.572 657.752 660.828 657.265 660.012 656.937C659.195 656.609 658.322 656.446 657.442 656.459C655.697 656.484 654.032 657.194 652.807 658.437C651.582 659.679 650.896 661.354 650.896 663.099C650.896 664.844 651.583 666.519 652.808 667.761C654.034 669.004 655.699 669.714 657.443 669.738ZM695.508 688.252C698.998 688.306 702.488 688.118 705.952 687.688C705.661 677.878 703.518 673.95 702.366 672.55C702.084 672.076 701.64 671.721 701.116 671.549C699.33 672.909 697.111 673.726 694.7 673.726C692.288 673.726 690.068 672.909 688.282 671.549C687.759 671.721 687.315 672.077 687.032 672.55C685.86 673.976 683.655 678.004 683.428 688.209C687.454 688.186 691.481 688.201 695.508 688.252Z" fill="#0D0C0C"/>
<path d="M695.597 669.729C699.216 669.139 701.673 665.727 701.083 662.107C700.494 658.487 697.081 656.031 693.462 656.62C689.842 657.21 687.385 660.622 687.975 664.242C688.564 667.862 691.977 670.318 695.597 669.729Z" fill="#0D0C0C"/>
<path d="M404.537 671.549C402.752 672.909 400.533 673.726 398.12 673.726C395.707 673.726 393.49 672.909 391.704 671.549C391.18 671.721 390.735 672.076 390.452 672.55C389.377 673.857 387.438 677.357 386.946 685.787C393.984 686.351 401.446 686.866 409.36 687.328C409.027 677.786 406.925 673.932 405.788 672.549C405.505 672.075 405.061 671.72 404.537 671.549Z" fill="#0D0C0C"/>
<path d="M398.121 669.74C401.789 669.74 404.762 666.767 404.762 663.099C404.762 659.432 401.789 656.459 398.121 656.459C394.454 656.459 391.481 659.432 391.481 663.099C391.481 666.767 394.454 669.74 398.121 669.74Z" fill="#0D0C0C"/>
<path d="M441.794 671.548C440.008 672.907 437.789 673.724 435.378 673.724C432.966 673.724 430.746 672.907 428.96 671.548C428.437 671.72 427.993 672.075 427.71 672.549C426.542 673.97 424.349 677.979 424.108 688.106C431.531 688.456 439.059 688.753 446.657 689.004C446.528 678.223 444.247 674.01 443.044 672.549C442.761 672.076 442.317 671.72 441.794 671.548Z" fill="#0D0C0C"/>
<path d="M435.378 669.74C439.045 669.74 442.018 666.767 442.018 663.099C442.018 659.432 439.045 656.459 435.378 656.459C431.71 656.459 428.737 659.432 428.737 663.099C428.737 666.767 431.71 669.74 435.378 669.74Z" fill="#0D0C0C"/>
<path d="M479.05 671.548C477.265 672.907 475.046 673.724 472.634 673.724C470.223 673.724 468.003 672.907 466.217 671.548C465.693 671.719 465.249 672.075 464.967 672.549C463.75 674.029 461.426 678.337 461.353 689.432C468.841 689.62 476.373 689.768 483.918 689.879C483.905 678.452 481.535 674.049 480.302 672.549C480.018 672.076 479.574 671.721 479.05 671.548Z" fill="#0D0C0C"/>
<path d="M472.633 669.74C476.3 669.74 479.274 666.767 479.274 663.099C479.274 659.432 476.3 656.459 472.633 656.459C468.966 656.459 465.992 659.432 465.992 663.099C465.992 666.767 468.966 669.74 472.633 669.74Z" fill="#0D0C0C"/>
<path d="M516.307 671.548C514.465 672.959 512.21 673.724 509.889 673.724C507.57 673.724 505.315 672.959 503.473 671.548C502.949 671.719 502.505 672.075 502.223 672.549C500.984 674.057 498.593 678.494 498.605 690.055C506.149 690.124 513.681 690.16 521.175 690.17C521.203 678.521 518.801 674.062 517.556 672.549C517.273 672.076 516.83 671.72 516.307 671.548ZM509.889 669.738C510.769 669.751 511.643 669.588 512.459 669.26C513.276 668.932 514.019 668.445 514.646 667.827C515.272 667.209 515.77 666.473 516.109 665.661C516.449 664.85 516.624 663.979 516.624 663.099C516.624 662.219 516.449 661.347 516.109 660.536C515.77 659.724 515.272 658.988 514.646 658.37C514.019 657.752 513.276 657.265 512.459 656.937C511.643 656.609 510.769 656.446 509.889 656.459C508.145 656.483 506.48 657.194 505.255 658.436C504.03 659.679 503.343 661.354 503.343 663.099C503.343 664.843 504.03 666.518 505.255 667.761C506.48 669.003 508.145 669.714 509.889 669.738ZM559.799 690.018L558.997 646.841H530.776L529.971 690.173C540.039 690.16 550.007 690.104 559.799 690.018ZM550.206 173.441H539.565L539.396 182.554H550.375L550.206 173.441ZM553.914 373.16L553.337 342.061H536.434L535.857 373.16H553.914ZM445.15 788.491C453.851 788.491 460.929 781.412 460.929 772.712C460.929 764.011 453.85 756.933 445.15 756.933C436.45 756.933 429.371 764.011 429.371 772.712C429.372 781.414 436.45 788.491 445.15 788.491ZM345.409 788.491C354.11 788.491 361.188 781.412 361.188 772.712C361.188 764.011 354.109 756.933 345.409 756.933C336.709 756.933 329.63 764.011 329.63 772.712C329.631 781.414 336.709 788.491 345.409 788.491ZM544.891 788.491C553.593 788.491 560.67 781.412 560.67 772.712C560.67 764.011 553.591 756.933 544.891 756.933C536.191 756.933 529.112 764.011 529.112 772.712C529.114 781.414 536.191 788.491 544.891 788.491ZM644.633 756.933C635.931 756.933 628.855 764.011 628.855 772.712C628.855 781.414 635.933 788.491 644.633 788.491C653.332 788.491 660.411 781.412 660.411 772.712C660.413 764.012 653.334 756.933 644.633 756.933ZM744.374 788.491C753.074 788.491 760.153 781.412 760.153 772.712C760.153 764.011 753.074 756.933 744.374 756.933C735.672 756.933 728.595 764.011 728.595 772.712C728.596 781.414 735.674 788.491 744.374 788.491ZM329.715 574.278C330.875 574.278 331.823 573.329 331.823 572.17V565.316C331.823 564.157 330.875 563.208 329.715 563.208H324.744C287.184 521.512 288.086 457.488 327.406 416.839H329.715C330.875 416.839 331.823 415.891 331.823 414.731V407.877C331.823 406.718 330.875 405.769 329.715 405.769H175.261C174.101 405.769 173.153 406.718 173.153 407.877V414.731C173.153 415.412 173.485 416.014 173.99 416.399H239.836V419.562H173.086C137.059 459.437 136.243 519.789 170.676 560.572H239.836V563.734H173.442C173.514 563.812 173.579 563.895 173.651 563.973C173.345 564.34 173.153 564.804 173.153 565.316V572.17C173.153 573.329 174.101 574.278 175.261 574.278H329.715ZM262.24 416.401H274.232V419.563H262.24V416.401ZM262.24 560.573H274.232V563.735H262.24V560.573ZM244.581 416.401H256.573V419.563H244.581V416.401ZM199.13 465.98C203.605 454.162 222.201 446.591 234.879 446.623C247.704 446.591 249.788 454.162 245.31 465.98C241.829 474.845 235.614 482.875 227.279 486.271C227.267 488.135 227.347 489.998 227.518 491.854C227.687 493.627 226.579 495.068 224.942 495.068H224.595C222.961 495.068 221.381 493.628 221.214 491.854C221.091 490.523 221.016 489.188 220.988 487.851C220.144 487.94 219.286 487.993 218.41 487.988C217.558 487.992 216.706 487.949 215.858 487.859C215.891 489.193 215.956 490.526 216.084 491.856C216.257 493.628 215.143 495.07 213.508 495.07H213.161C211.52 495.07 209.946 493.629 209.78 491.856C209.609 490.006 209.529 488.15 209.54 486.293C201.174 482.905 195.645 474.861 199.13 465.98ZM209.833 520.948C212.336 523.019 213.283 525.225 211.759 525.977C210.241 526.727 206.674 525.836 203.985 523.868C202.127 522.509 201.272 520.964 201.469 519.852C199.764 519.692 197.649 518.778 196.029 517.291C193.684 515.143 193.435 512.591 195.28 511.679C197.13 510.766 200.221 511.893 202.378 514.122C202.653 514.407 202.9 514.695 203.122 514.982C206.976 513.06 210.949 511.088 215.052 509.071C207.802 506.58 200.592 503.977 193.423 501.264C193.457 501.583 193.465 501.899 193.44 502.208C193.238 504.611 191.1 505.749 188.469 504.805C185.844 503.86 183.87 501.147 184.262 498.708C184.526 497.022 185.784 495.948 187.339 495.758C186.099 494.449 185.488 492.601 185.995 490.887C186.725 488.409 189.341 487.199 191.642 488.191C193.949 489.182 195.218 492.001 194.673 494.463C194.607 494.761 194.51 495.052 194.383 495.33C203.457 498.983 212.598 502.463 221.804 505.769C229.106 502.219 236.444 498.743 243.817 495.342C243.602 495.067 243.412 494.772 243.251 494.463C241.971 492.001 242.924 489.184 245.192 488.191C247.462 487.199 250.041 488.409 251.136 490.887C251.891 492.601 251.797 494.449 250.989 495.758C252.598 495.949 254.216 497.023 255.214 498.708C256.651 501.147 256.4 503.86 254.45 504.805C252.509 505.749 249.458 504.609 247.831 502.208C247.631 501.916 247.459 501.606 247.316 501.282C241.938 503.845 236.576 506.44 231.23 509.07C237.182 511.112 243.161 513.076 249.164 514.961C249.054 514.691 248.976 514.409 248.932 514.121C248.598 511.892 250.699 510.765 253.424 511.678C256.154 512.589 258.626 515.142 259.145 517.29C259.501 518.775 258.737 519.689 257.28 519.85C259.131 520.962 260.692 522.508 261.29 523.867C262.149 525.834 260.528 526.726 257.472 525.975C254.426 525.223 251.245 523.018 250.573 520.946C250.491 520.704 250.446 520.45 250.44 520.194C241.806 517.728 233.221 515.096 224.688 512.3C219.401 514.926 214.119 517.562 208.841 520.208C209.182 520.439 209.512 520.685 209.833 520.948ZM244.581 563.735V560.573H256.573V563.735H244.581Z" fill="#0D0C0C"/>
<path d="M209.871 477.441C213.619 477.456 217.321 472.026 219.832 465.712C222.302 459.385 222.637 454.765 218.889 454.767C215.184 454.764 208.814 459.385 206.344 465.712C203.833 472.027 206.171 477.457 209.871 477.441ZM228.343 477.441C232.09 477.456 235.792 472.026 238.304 465.712C240.77 459.385 241.109 454.765 237.361 454.767C233.659 454.764 227.286 459.385 224.816 465.712C222.302 472.027 224.639 477.457 228.343 477.441ZM476.384 325.904H538.742V328.755H478.878C478.944 328.829 479.005 328.906 479.073 328.979C478.801 329.308 478.63 329.723 478.63 330.181V336.358C478.63 337.404 479.486 338.259 480.532 338.259H619.763C620.809 338.259 621.664 337.404 621.664 336.358V330.181C621.664 329.135 620.809 328.28 619.763 328.28H615.28C581.425 290.696 582.219 232.979 617.653 196.335H619.763C620.809 196.335 621.664 195.479 621.664 194.434V188.257C621.664 187.211 620.809 186.355 619.763 186.355H480.53C479.485 186.355 478.629 187.211 478.629 188.257V194.434C478.629 195.047 478.929 195.591 479.384 195.939H538.741V198.79H478.541C446.077 234.735 445.351 289.143 476.384 325.904ZM548.926 263.087C549.607 264.632 549.523 266.299 548.793 267.478C550.244 267.65 551.705 268.618 552.601 270.137C553.899 272.336 553.668 274.782 551.913 275.634C550.159 276.485 547.412 275.457 545.946 273.293C545.767 273.029 545.612 272.75 545.483 272.458C540.634 274.768 535.801 277.107 530.982 279.477C536.347 281.319 541.736 283.089 547.147 284.788C547.048 284.545 546.978 284.291 546.939 284.032C546.642 282.022 548.533 281.005 550.988 281.829C553.449 282.65 555.68 284.951 556.146 286.889C556.465 288.228 555.778 289.052 554.464 289.196C556.132 290.2 557.54 291.592 558.079 292.817C558.855 294.591 557.391 295.393 554.64 294.718C551.889 294.039 549.027 292.052 548.42 290.185C548.346 289.966 548.306 289.738 548.302 289.507C540.519 287.284 532.779 284.911 525.088 282.39C520.109 284.86 515.349 287.243 510.802 289.518C511.108 289.724 511.407 289.946 511.695 290.184C513.951 292.052 514.804 294.038 513.432 294.717C512.062 295.393 508.846 294.589 506.423 292.816C504.744 291.591 503.974 290.198 504.152 289.195C502.615 289.05 500.707 288.227 499.251 286.887C497.136 284.95 496.911 282.65 498.575 281.828C500.242 281.004 503.027 282.02 504.973 284.031C505.221 284.287 505.444 284.546 505.643 284.805C509.118 283.073 512.7 281.295 516.398 279.477C509.864 277.232 503.364 274.886 496.902 272.441C496.933 272.728 496.941 273.014 496.917 273.293C496.735 275.457 494.805 276.484 492.435 275.634C490.067 274.782 488.291 272.336 488.642 270.137C488.881 268.617 490.017 267.65 491.419 267.478C490.301 266.299 489.746 264.632 490.206 263.087C490.865 260.854 493.222 259.762 495.296 260.657C497.372 261.551 498.519 264.09 498.029 266.309C497.969 266.578 497.882 266.841 497.768 267.092C505.947 270.385 514.188 273.522 522.486 276.503C529.069 273.303 535.684 270.169 542.33 267.102C542.136 266.854 541.964 266.589 541.818 266.311C540.661 264.092 541.527 261.551 543.568 260.659C545.618 259.763 547.938 260.854 548.926 263.087ZM543.676 240.633C540.539 248.624 534.933 255.862 527.421 258.925C527.41 260.605 527.481 262.284 527.636 263.958C527.786 265.555 526.79 266.854 525.314 266.854H525.001C523.525 266.854 522.106 265.555 521.954 263.958C521.843 262.757 521.775 261.554 521.749 260.349C520.988 260.429 520.216 260.476 519.425 260.471C518.657 260.475 517.888 260.436 517.124 260.356C517.155 261.558 517.213 262.759 517.327 263.958C517.481 265.555 516.484 266.854 515.005 266.854H514.693C513.216 266.854 511.799 265.555 511.645 263.958C511.49 262.29 511.418 260.616 511.429 258.942C503.887 255.889 498.903 248.637 502.045 240.632C506.076 229.977 522.845 223.154 534.271 223.181C545.837 223.155 547.708 229.979 543.676 240.633Z" fill="#0D0C0C"/>
<path d="M511.73 250.965C515.107 250.978 518.443 246.083 520.71 240.391C522.937 234.688 523.237 230.524 519.86 230.525C516.521 230.524 510.776 234.688 508.551 240.391C506.286 246.083 508.391 250.979 511.73 250.965ZM528.38 250.965C531.76 250.978 535.092 246.083 537.36 240.391C539.585 234.688 539.888 230.524 536.51 230.525C533.171 230.524 527.429 234.688 525.202 240.391C522.938 246.083 525.041 250.979 528.38 250.965ZM445.749 379.682C444.885 379.685 444.057 380.03 443.446 380.641C442.835 381.252 442.49 382.08 442.487 382.944V393.544C442.487 394.598 443.002 395.529 443.783 396.126H545.627V401.018H442.296C386.609 462.691 385.38 556.05 438.614 619.12H545.626V624.012H442.903C443.019 624.138 443.13 624.268 443.246 624.395C442.759 624.972 442.49 625.703 442.486 626.458V637.058C442.488 637.922 442.833 638.75 443.444 639.362C444.055 639.973 444.883 640.317 445.748 640.32H684.641C685.505 640.317 686.333 639.972 686.944 639.361C687.555 638.75 687.9 637.922 687.902 637.058V626.458C687.9 625.594 687.555 624.766 686.944 624.155C686.333 623.543 685.505 623.199 684.641 623.196H676.948C618.858 558.712 620.221 459.677 681.019 396.805H684.639C685.503 396.802 686.331 396.457 686.943 395.846C687.554 395.235 687.898 394.407 687.901 393.543V382.943C687.898 382.079 687.554 381.251 686.943 380.64C686.331 380.028 685.503 379.684 684.639 379.681L445.749 379.682ZM598.829 624.011H580.28V619.119H598.829V624.011ZM580.28 396.126H598.829V401.018H580.28V396.126ZM552.965 396.126H571.515V401.018H552.965V396.126ZM482.667 472.811C489.582 454.53 518.354 442.822 537.96 442.87C557.803 442.822 561.013 454.53 554.093 472.811C548.712 486.523 539.094 498.945 526.205 504.2C526.186 507.082 526.31 509.963 526.576 512.832C526.834 515.573 525.125 517.803 522.591 517.803H522.056C519.522 517.803 517.088 515.573 516.826 512.832C516.637 510.776 516.52 508.714 516.477 506.649C515.172 506.786 513.843 506.86 512.49 506.851C511.161 506.859 509.843 506.787 508.541 506.652C508.593 508.715 508.692 510.776 508.89 512.832C509.155 515.573 507.442 517.803 504.906 517.803H504.369C501.835 517.803 499.402 515.573 499.139 512.832C498.875 509.972 498.752 507.101 498.77 504.228C485.828 498.989 477.275 486.547 482.667 472.811ZM571.515 624.011H552.965V619.119H571.515V624.011ZM562.234 557.831C562.107 557.456 562.037 557.064 562.027 556.668C548.673 552.854 535.395 548.782 522.198 544.457C513.656 548.694 505.486 552.785 497.687 556.688C498.212 557.043 498.725 557.423 499.219 557.831C503.089 561.036 504.555 564.445 502.199 565.61C499.848 566.77 494.331 565.392 490.175 562.348C487.3 560.25 485.941 557.852 486.238 556.132C483.608 555.872 480.356 554.461 477.869 552.176C474.241 548.853 473.855 544.906 476.709 543.496C479.57 542.082 484.349 543.826 487.686 547.275C488.112 547.715 488.494 548.16 488.837 548.603C494.799 545.63 500.944 542.581 507.289 539.462C496.078 535.609 484.926 531.584 473.838 527.389C473.891 527.881 473.903 528.371 473.863 528.85C473.551 532.563 470.24 534.327 466.174 532.867C462.111 531.405 459.065 527.208 459.665 523.435C460.073 520.848 461.984 519.161 464.361 518.847C462.473 516.826 461.565 513.97 462.347 511.339C463.477 507.507 467.522 505.634 471.081 507.17C474.645 508.703 476.612 513.061 475.77 516.869C475.664 517.348 475.512 517.798 475.323 518.212C489.357 523.862 503.496 529.244 517.734 534.358C529.028 528.867 540.377 523.491 551.78 518.229C551.448 517.803 551.155 517.348 550.905 516.869C548.918 513.061 550.404 508.704 553.907 507.17C557.424 505.634 561.406 507.507 563.1 511.339C564.263 513.976 564.125 516.821 562.892 518.843C565.376 519.145 567.871 520.836 569.407 523.435C571.634 527.208 571.24 531.405 568.225 532.867C565.217 534.327 560.503 532.563 557.986 528.85C557.678 528.398 557.412 527.919 557.19 527.418C548.597 531.51 540.297 535.536 532.31 539.462C541.515 542.621 550.761 545.659 560.046 548.574C559.875 548.157 559.755 547.722 559.687 547.276C559.178 543.827 562.423 542.084 566.636 543.497C570.857 544.907 574.686 548.855 575.486 552.177C576.033 554.469 574.887 555.911 572.643 556.163C575.486 557.883 577.881 560.257 578.802 562.35C580.133 565.394 577.622 566.771 572.899 565.611C568.185 564.445 563.274 561.036 562.234 557.831Z" fill="#0D0C0C"/>
<path d="M499.28 490.539C505.076 490.563 510.801 482.163 514.687 472.398C518.508 462.612 519.023 455.467 513.228 455.47C507.498 455.467 497.642 462.612 493.826 472.398C489.941 482.162 493.552 490.562 499.28 490.539ZM527.851 490.539C533.65 490.563 539.369 482.163 543.258 472.398C547.076 462.612 547.594 455.467 541.799 455.47C536.072 455.467 526.218 462.612 522.397 472.398C518.512 482.162 522.122 490.562 527.851 490.539ZM136.406 637.66H118.543C117.323 637.66 116.324 638.658 116.324 639.879V654.022C116.324 654.855 116.796 655.576 117.48 655.955H182.561V661.225H132.758C135.009 663.867 137.22 666.946 138.988 670.358H206.769V675.627H141.219C141.528 676.565 141.809 677.516 142.028 678.489C143.236 683.831 144.459 691.115 145.876 699.548C153.961 747.657 169.009 837.209 227.338 848.191C312.449 864.22 677.221 860.702 814.545 859.374C837.203 859.156 854.13 858.993 863.835 858.965C865.486 802.815 918.391 705.152 946.573 660.72C957.246 643.894 962.237 629.483 964.4 618.267H911.808V612.997H965.25C965.795 608.77 965.934 605.115 965.863 602.101H820.744V596.832H979.591C980.021 596.679 980.393 596.397 980.656 596.025C980.92 595.653 981.063 595.208 981.065 594.753V580.609C981.065 579.389 980.067 578.39 978.846 578.39H971.44V556.105C971.44 556.012 971.42 555.924 971.412 555.833H981.046C981.911 555.83 982.739 555.485 983.35 554.874C983.961 554.263 984.305 553.435 984.308 552.571V551.484C984.306 550.62 983.961 549.791 983.35 549.18C982.739 548.569 981.911 548.225 981.046 548.222H755.283C754.419 548.225 753.591 548.569 752.98 549.181C752.369 549.792 752.024 550.62 752.021 551.484V552.571C752.024 553.435 752.368 554.263 752.979 554.875C753.591 555.486 754.419 555.83 755.283 555.833H764.917C764.909 555.924 764.889 556.012 764.889 556.105V578.39H757.934C756.714 578.39 755.715 579.388 755.715 580.609V594.754C755.715 595.974 756.713 596.973 757.934 596.973H771.992C771.475 611.733 767.823 650.937 744.237 674.782C731.627 687.533 715.25 693.827 695.431 693.565C682.006 693.368 660.835 693.752 634.035 694.236C465.26 697.285 284.921 697.043 271.243 656.239H275.242C275.8 656.239 276.306 656.023 276.698 655.679C277.162 655.271 277.461 654.682 277.461 654.021V644.031C290.261 623.706 303.631 601.546 317.259 578.263H313.481C301.029 599.508 288.801 619.793 277.033 638.58C276.828 638.296 276.559 638.064 276.248 637.904C275.937 637.744 275.592 637.66 275.242 637.658H268.402L267.561 578.264H250.683L249.842 637.658H238.85C241.246 634.656 243.623 631.64 245.984 628.61L246.061 623.189C242.31 628.047 238.514 632.87 234.674 637.657H216.312V626.57L222.392 626.684C223.055 626.696 223.713 626.577 224.328 626.332C224.944 626.087 225.504 625.722 225.977 625.258C226.45 624.794 226.825 624.24 227.081 623.629C227.338 623.018 227.469 622.362 227.469 621.7V613.561C227.469 612.899 227.337 612.243 227.081 611.632C226.824 611.021 226.449 610.468 225.976 610.004C225.504 609.54 224.943 609.175 224.328 608.93C223.713 608.685 223.055 608.565 222.392 608.577L207.888 608.848V602.851L145.379 591.436V610.021L4.89073 612.649C3.58889 612.679 2.35049 613.218 1.44039 614.149C0.53029 615.08 0.020752 616.331 0.020752 617.633C0.020752 618.935 0.53029 620.186 1.44039 621.117C2.35049 622.049 3.58889 622.587 4.89073 622.617L136.406 625.078V637.66ZM869.705 612.999H885.016V618.268H869.705V612.999ZM904.536 618.268H892.288V612.999H904.536V618.268ZM963.858 555.833C963.85 555.924 963.83 556.012 963.83 556.105V578.39H943.019V556.105C943.019 556.012 942.999 555.924 942.991 555.833H963.858ZM935.438 555.833C935.43 555.924 935.41 556.012 935.41 556.105V578.39H914.599V556.105C914.599 556.012 914.58 555.924 914.572 555.833H935.438ZM907.017 555.833C907.009 555.924 906.989 556.012 906.989 556.105V578.39H886.178V556.105C886.178 556.012 886.159 555.924 886.151 555.833H907.017ZM878.597 555.833C878.589 555.924 878.569 556.012 878.569 556.105V578.39H875.499L875.215 558.279H860.205V578.39H857.759V556.105C857.759 556.012 857.739 555.924 857.731 555.833H878.597ZM850.178 555.833C850.17 555.924 850.15 556.012 850.15 556.105V578.39H829.339V556.105C829.339 556.012 829.319 555.924 829.311 555.833H850.178ZM821.757 555.833C821.749 555.924 821.729 556.012 821.729 556.105V578.39H800.918V556.105C800.918 556.012 800.898 555.924 800.89 555.833H821.757ZM772.471 555.833H793.336C793.328 555.924 793.308 556.012 793.308 556.105V578.39H772.498V556.105C772.498 556.012 772.479 555.924 772.471 555.833ZM644.634 795.542C632.025 795.542 621.805 785.321 621.805 772.714C621.805 760.105 632.026 749.885 644.634 749.885C657.243 749.885 667.463 760.106 667.463 772.714C667.463 785.321 657.241 795.542 644.634 795.542ZM744.375 749.884C756.984 749.884 767.204 760.105 767.204 772.712C767.204 785.321 756.983 795.541 744.375 795.541C731.766 795.541 721.545 785.32 721.545 772.712C721.545 760.105 731.766 749.884 744.375 749.884ZM544.893 749.884C557.501 749.884 567.721 760.105 567.721 772.712C567.721 785.321 557.5 795.541 544.893 795.541C532.284 795.541 522.062 785.32 522.062 772.712C522.062 760.105 532.284 749.884 544.893 749.884ZM445.151 749.884C457.76 749.884 467.98 760.105 467.98 772.712C467.98 785.321 457.759 795.541 445.151 795.541C432.542 795.541 422.323 785.32 422.323 772.712C422.321 760.105 432.542 749.884 445.151 749.884ZM345.41 749.884C358.019 749.884 368.239 760.105 368.239 772.712C368.239 785.321 358.018 795.541 345.41 795.541C332.803 795.541 322.581 785.32 322.581 772.712C322.58 760.105 332.801 749.884 345.41 749.884ZM212.821 661.225V655.955H230.113V661.225H212.821ZM254.321 670.359V675.628H237.03V670.359H254.321ZM190.775 655.956H204.608V661.226H190.775V655.956ZM197.658 713.463C183.811 715.538 171.339 713.435 169.801 708.765C168.262 704.095 178.24 698.626 192.087 696.551C205.934 694.475 218.406 696.578 219.945 701.249C221.484 705.919 211.505 711.387 197.658 713.463ZM214.982 675.627V670.358H228.816V675.627H214.982ZM730.706 195.71C733.822 190.395 743.561 177.443 755.439 180.019C742.795 165.789 728.591 187.513 728.591 187.513C728.591 187.513 705.65 175.373 701.472 193.945C710.618 185.941 725.41 192.567 730.706 195.71ZM785.35 219.209C788.465 213.89 798.205 200.939 810.08 203.515C797.438 189.284 783.234 211.007 783.234 211.007C783.234 211.007 760.291 198.869 756.115 217.44C765.261 209.434 780.052 216.061 785.35 219.209ZM794.093 156.369C797.205 151.051 806.944 138.096 818.826 140.678C806.182 126.443 791.976 148.169 791.976 148.169C791.976 148.169 769.033 136.03 764.857 154.602C774.007 146.597 788.794 153.223 794.093 156.369ZM115.988 317.946C119.104 312.63 128.843 299.678 140.721 302.254C128.077 288.025 113.873 309.748 113.873 309.748C113.873 309.748 90.9337 297.608 86.7538 316.18C95.9001 308.176 110.691 314.802 115.988 317.946ZM170.631 341.444C173.745 336.125 183.486 323.174 195.361 325.75C182.719 311.519 168.514 333.242 168.514 333.242C168.514 333.242 145.571 321.104 141.396 339.676C150.543 331.669 165.332 338.296 170.631 341.444ZM179.373 278.605C182.485 273.286 192.224 260.332 204.106 262.913C191.463 248.678 177.258 270.404 177.258 270.404C177.258 270.404 154.315 258.266 150.139 276.837C159.288 268.832 174.075 275.458 179.373 278.605ZM315.706 220.964C341.301 220.964 362.053 200.216 362.053 174.617C362.053 149.022 341.301 128.27 315.706 128.27C290.108 128.27 269.359 149.022 269.359 174.617C269.359 200.217 290.108 220.964 315.706 220.964ZM315.706 137.101C336.387 137.101 353.217 153.934 353.217 174.626C353.217 195.311 336.387 212.128 315.706 212.128C295.015 212.128 278.191 195.309 278.191 174.626C278.191 153.934 295.015 137.101 315.706 137.101ZM81.4565 838.519H115.842V841.329H81.4565V838.519ZM38.8602 838.519H63.5822V841.329H38.8602V838.519ZM130.537 838.519H181.972V841.329H130.537V838.519ZM880.334 838.519H914.719V841.329H880.334V838.519ZM989.615 838.519H1024V841.329H989.615V838.519ZM927.611 838.519H976.5V841.329H927.611V838.519ZM598.777 900.273H716.832V903.083H598.777V900.273ZM747.064 900.273H877.752V903.083H747.064V900.273ZM451.304 900.273H569.36V903.083H451.304V900.273ZM306.937 900.273H424.992V903.083H306.937V900.273ZM141.054 900.273H282.103V903.083H141.054V900.273ZM158.126 866.738H236.059V869.548H158.126V866.738ZM77.3908 866.738H135.083V869.548H77.3908V866.738ZM971.568 866.738H1001.35V869.548H971.568V866.738ZM808.525 883.056H926.58V885.866H808.525V883.056ZM649.208 883.056H767.264V885.866H649.208V883.056ZM527.95 883.056H562.335V885.866H527.95V883.056ZM580.673 883.056H615.058V885.866H580.673V883.056ZM383.298 883.056H501.353V885.866H383.298V883.056ZM262.039 883.056H296.424V885.866H262.039V883.056ZM122.565 883.056H229.299V885.866H122.565V883.056ZM314.764 883.056H349.149V885.866H314.764V883.056ZM598.777 934.706H716.832V937.516H598.777V934.706ZM747.064 934.706H850.41V937.516H747.064V934.706ZM451.304 934.706H569.36V937.516H451.304V934.706ZM306.937 934.706H424.992V937.516H306.937V934.706ZM167.429 934.706H285.484V937.516H167.429V934.706ZM808.525 917.489H926.58V920.299H808.525V917.489ZM649.208 917.489H767.264V920.299H649.208V917.489ZM527.95 917.489H562.335V920.299H527.95V917.489ZM580.673 917.489H615.058V920.299H580.673V917.489ZM383.298 917.489H501.353V920.299H383.298V917.489ZM314.764 917.489H349.149V920.299H314.764V917.489ZM256.746 917.489H291.131V920.299H256.746V917.489ZM157.662 917.489H230.456V920.299H157.662V917.489ZM769.469 951.922H887.524V954.732H769.469V951.922ZM610.152 951.922H728.207V954.732H610.152V951.922ZM488.893 951.922H523.278V954.732H488.893V951.922ZM541.616 951.922H576.001V954.732H541.616V951.922ZM344.241 951.922H462.296V954.732H344.241V951.922ZM222.984 951.922H257.369V954.732H222.984V951.922ZM275.707 951.922H310.092V954.732H275.707V951.922ZM890.247 866.738H955.514V869.548H890.247V866.738Z" fill="#0D0C0C"/>
</svg>
