<svg width="512" height="512" viewBox="0 0 512 512" fill="none" xmlns="http://www.w3.org/2000/svg">
<path d="M139.624 289.132C138.372 290.894 137.113 292.651 135.847 294.403L135.886 297.128C137.787 294.512 139.7 291.846 141.624 289.131H139.624V289.132ZM228.695 150.933C228.431 150.289 228.177 149.641 227.94 148.989C207.076 184.906 180.791 228.528 155.087 266.738C155.345 267.317 155.613 267.892 155.891 268.462C181.529 230.415 207.776 186.911 228.695 150.933ZM230.201 154.234C210.846 191.692 186.247 238.048 162.684 278.906C162.88 279.14 163.067 279.38 163.268 279.611H164.159C187.506 239.121 211.858 193.259 231.123 155.999C230.804 155.417 230.497 154.828 230.201 154.234ZM263.961 91.2771C265.165 88.8543 266.129 86.9072 266.825 85.4975H280.334L283.283 69.9059L283.418 69.191H261.539L261.968 71.4557H280.122V72.6183H262.188L264.431 84.4817C263.347 86.4548 262.093 88.7301 260.683 91.2764L263.961 91.2771ZM437.216 251.521H428.777L428.474 272.889H437.519L437.216 251.521ZM435.765 149.104H433.736V143.819C437.439 142.458 453.131 142.651 461.199 146.387C470.05 150.484 478.286 149.275 479.228 145.731C470.419 147.001 466.28 140.486 474.312 142.289C487.434 145.126 482.507 135.405 482.507 135.405C482.507 135.405 481.605 141.306 465.953 134.75C453.34 129.466 439.668 130.915 434.832 131.676C434.892 131.492 434.933 131.3 434.933 131.096C434.933 130.594 434.733 130.113 434.379 129.758C434.024 129.404 433.543 129.205 433.041 129.205C432.54 129.205 432.059 129.404 431.704 129.758C431.349 130.113 431.15 130.594 431.15 131.096C431.15 131.894 431.647 132.574 432.347 132.852V149.104H430.229L430.028 163.282H435.967L435.765 149.104ZM468.294 249.528C468.874 249.528 469.348 249.054 469.348 248.474V245.048C469.348 244.468 468.874 243.993 468.294 243.993H465.808C447.027 223.146 447.479 191.133 467.139 170.809H468.294C468.874 170.809 469.348 170.335 469.348 169.755V166.328C469.348 165.748 468.874 165.274 468.294 165.274H391.068C390.488 165.274 390.013 165.748 390.013 166.328V169.755C390.013 170.096 390.179 170.396 390.432 170.589H423.355V172.171H389.98C371.966 192.108 371.558 222.285 388.775 242.676H423.355V244.257H390.158C390.194 244.296 390.227 244.337 390.262 244.377C390.11 244.56 390.013 244.792 390.013 245.048V248.475C390.013 249.055 390.488 249.529 391.068 249.529L468.294 249.528ZM434.557 170.589H440.553V172.171H434.557V170.589ZM425.727 170.589H431.723V172.171H425.727V170.589ZM403.001 195.38C405.238 189.47 414.539 185.685 420.876 185.701C427.29 185.686 428.327 189.47 426.091 195.38C424.353 199.812 421.242 203.826 417.076 205.525C417.07 206.457 417.11 207.389 417.195 208.317C417.279 209.203 416.729 209.923 415.907 209.924H415.734C414.913 209.924 414.128 209.203 414.043 208.317C413.982 207.651 413.944 206.983 413.93 206.315C413.508 206.36 413.079 206.386 412.641 206.383C412.215 206.385 411.789 206.364 411.365 206.319C411.381 206.986 411.414 207.652 411.478 208.317C411.562 209.203 411.009 209.924 410.19 209.924H410.017C409.199 209.924 408.409 209.203 408.326 208.317C408.241 207.393 408.201 206.464 408.206 205.536C404.023 203.842 401.259 199.82 403.001 195.38ZM431.723 244.257H425.727V242.676H431.723V244.257ZM432.172 225.378C430.646 225.002 429.058 223.9 428.723 222.864C428.683 222.743 428.661 222.616 428.658 222.489C424.34 221.255 420.047 219.939 415.781 218.541C413.137 219.854 410.496 221.172 407.858 222.495C408.027 222.609 408.193 222.732 408.353 222.864C409.603 223.9 410.076 225.002 409.316 225.378C408.557 225.753 406.771 225.308 405.429 224.324C404.497 223.645 404.071 222.873 404.17 222.316C403.318 222.235 402.26 221.778 401.451 221.036C400.279 219.961 400.155 218.685 401.076 218.23C402.001 217.773 403.546 218.337 404.625 219.451C404.763 219.593 404.886 219.738 404.997 219.88C406.924 218.919 408.911 217.933 410.962 216.926C407.338 215.68 403.733 214.379 400.148 213.023C400.165 213.181 400.169 213.34 400.157 213.495C400.057 214.695 398.986 215.265 397.671 214.793C396.358 214.321 395.37 212.964 395.567 211.745C395.7 210.902 396.329 210.365 397.106 210.27C396.486 209.616 396.179 208.692 396.434 207.834C396.799 206.595 398.109 205.99 399.257 206.486C400.411 206.982 401.044 208.391 400.773 209.622C400.74 209.771 400.692 209.917 400.629 210.056C405.166 211.883 409.736 213.623 414.339 215.275C417.99 213.5 421.659 211.763 425.345 210.062C425.238 209.924 425.143 209.777 425.062 209.622C424.418 208.391 424.897 206.983 426.032 206.486C427.169 205.99 428.454 206.595 429.004 207.834C429.381 208.692 429.335 209.616 428.931 210.27C429.736 210.366 430.545 210.902 431.044 211.745C431.763 212.964 431.637 214.321 430.661 214.793C429.691 215.265 428.163 214.695 427.351 213.495C427.252 213.349 427.166 213.194 427.095 213.032C424.406 214.313 421.725 215.611 419.052 216.926C422.028 217.947 425.017 218.929 428.018 219.871C427.964 219.736 427.925 219.595 427.902 219.451C427.737 218.337 428.784 217.773 430.149 218.23C431.514 218.685 432.75 219.961 433.01 221.036C433.187 221.779 432.806 222.236 432.076 222.316C433.002 222.872 433.783 223.645 434.081 224.324C434.51 225.308 433.7 225.753 432.172 225.378ZM434.557 242.675H440.553V244.256H434.557V242.675Z" fill="#0D0C0C"/>
<path d="M408.372 201.11C410.247 201.117 412.098 198.402 413.354 195.245C414.588 192.082 414.753 189.773 412.882 189.773C411.032 189.772 407.844 192.082 406.61 195.245C405.352 198.402 406.52 201.117 408.372 201.11ZM417.609 201.11C419.481 201.117 421.334 198.402 422.59 195.245C423.824 192.082 423.993 189.773 422.118 189.773C420.267 189.772 417.082 192.082 415.846 195.245C414.59 198.402 415.758 201.117 417.609 201.11ZM277.305 53.927C282.195 52.13 302.909 52.3851 313.561 57.3163C325.245 62.7259 336.118 61.1295 337.362 56.4507C325.732 58.1275 320.269 49.5271 330.871 51.9067C348.194 55.6529 341.689 42.8195 341.689 42.8195C341.689 42.8195 340.499 50.6087 319.836 41.9539C303.184 34.9792 285.136 36.8918 278.753 37.8969C278.832 37.6537 278.885 37.3993 278.885 37.1302C278.885 36.4679 278.622 35.8328 278.153 35.3645C277.685 34.8962 277.05 34.6331 276.388 34.6331C275.725 34.6331 275.09 34.8962 274.622 35.3645C274.154 35.8328 273.891 36.4679 273.891 37.1302C273.891 38.1845 274.546 39.082 275.47 39.4481V67.8571H277.304V53.927H277.305ZM266.666 56.3006C267.114 56.2035 267.539 56.0182 267.915 55.7556C268.291 55.4929 268.611 55.1581 268.856 54.7706C269.101 54.3831 269.267 53.9507 269.344 53.4986C269.42 53.0464 269.406 52.5835 269.302 52.1368C269.198 51.6902 269.007 51.2686 268.738 50.8967C268.47 50.5248 268.13 50.21 267.739 49.9706C267.348 49.7312 266.913 49.572 266.46 49.5023C266.007 49.4325 265.544 49.4536 265.099 49.5644C264.218 49.7836 263.458 50.3406 262.984 51.1152C262.51 51.8898 262.36 52.8197 262.565 53.7042C262.771 54.5886 263.317 55.3567 264.084 55.8425C264.851 56.3283 265.779 56.4928 266.666 56.3006Z" fill="#0D0C0C"/>
<path d="M273.202 67.8578C273.204 67.8458 273.208 67.8352 273.21 67.8232C273.607 64.4079 273.382 62.3891 272.336 59.2874C271.678 57.3721 270.204 56.5789 268.971 56.5836C268.824 56.5489 268.672 56.5442 268.524 56.5696L262.523 57.59L260.352 53.7635H261.643V53.8545C261.643 53.8993 261.661 53.9422 261.693 53.9738C261.724 54.0055 261.767 54.0233 261.812 54.0233C261.857 54.0233 261.899 54.0055 261.931 53.9738C261.963 53.9422 261.981 53.8993 261.981 53.8545V52.6029C261.981 52.5582 261.963 52.5153 261.931 52.4836C261.899 52.452 261.857 52.4342 261.812 52.4342C261.767 52.4342 261.724 52.452 261.693 52.4836C261.661 52.5153 261.643 52.5582 261.643 52.6029V52.694H259.707V52.5923H256.743V52.694H256.55V52.4614H251.832V52.3106C251.832 52.2659 251.814 52.223 251.782 52.1913C251.751 52.1597 251.708 52.1419 251.663 52.1419C251.618 52.1419 251.575 52.1597 251.544 52.1913C251.512 52.223 251.494 52.2659 251.494 52.3106V54.1482C251.494 54.2405 251.57 54.3169 251.663 54.3169C251.708 54.3167 251.75 54.2989 251.782 54.2673C251.814 54.2357 251.832 54.1929 251.832 54.1482V53.9974H256.55V53.7648H256.743V53.8665H258.099C258.062 54.1124 258.107 54.3637 258.229 54.5806L260.956 59.3863C261.069 59.5872 261.243 59.748 261.451 59.847C261.66 59.946 261.894 59.9784 262.121 59.9397L265.697 59.3319L263.942 61.1063L258.838 60.6147C258.558 60.5894 258.279 60.6756 258.062 60.8545C257.845 61.0335 257.707 61.2908 257.678 61.5706C257.651 61.8512 257.737 62.131 257.916 62.3485C258.095 62.5661 258.354 62.7035 258.634 62.7305L264.24 63.2706C264.397 63.2857 264.555 63.2656 264.704 63.2119C264.852 63.1581 264.987 63.072 265.098 62.9597L267.031 61.0053C267.436 62.9949 267.963 65.5619 267.742 67.8584L273.202 67.8578ZM126.791 186.715L126.59 200.892H132.53L132.329 186.715H130.299V181.43C134.002 180.068 149.694 180.262 157.762 183.997C166.613 188.095 174.849 186.886 175.791 183.341C166.982 184.612 162.843 178.097 170.874 179.9C183.996 182.737 179.069 173.016 179.069 173.016C179.069 173.016 178.168 178.916 162.516 172.36C149.902 167.077 136.23 168.526 131.395 169.287C131.455 169.103 131.495 168.91 131.495 168.706C131.495 168.205 131.296 167.724 130.941 167.369C130.587 167.014 130.105 166.815 129.604 166.815C129.102 166.815 128.621 167.014 128.266 167.369C127.912 167.724 127.713 168.205 127.713 168.706C127.713 169.505 128.209 170.185 128.909 170.462V186.715H126.791ZM291.272 326.246C291.172 325.3 291.078 324.363 290.98 323.42H289.341C289.449 324.467 289.554 325.506 289.666 326.557C290.182 326.371 290.724 326.266 291.272 326.246ZM282.172 186.58H283.802C283.799 181.397 283.83 176.213 283.893 171.03H282.262C282.199 176.213 282.169 181.397 282.172 186.58ZM307.148 327.131C306.971 325.889 306.799 324.655 306.626 323.42H304.979C305.218 325.126 305.46 326.837 305.708 328.556C306.093 327.993 306.582 327.51 307.148 327.131ZM299.342 145.87C298.891 137.808 298.542 129.74 298.294 121.668C296.527 129.655 296.869 138.026 299.342 145.87ZM298.52 120.656C299.317 128.416 300.596 139.575 302.547 153.55C303.213 154.809 303.936 156.036 304.715 157.228C302.062 138.728 300.539 124.744 299.744 116.499C299.271 117.865 298.863 119.252 298.52 120.656ZM309.486 162.239H309.881C310.374 162.239 310.831 162.377 311.237 162.598C305.343 136.171 302.357 118.266 301.422 112.329C300.993 113.268 300.595 114.22 300.23 115.185C301.483 122.818 304.378 139.268 309.486 162.239ZM311.377 170.595C311.991 173.261 312.631 176 313.3 178.811C311.762 179.664 310.107 180.415 308.393 181.069C308.312 180.577 308.228 180.073 308.148 179.587C307.669 176.658 307.215 173.807 306.782 171.03H305.132C305.576 173.882 306.042 176.812 306.535 179.824C306.632 180.416 306.735 181.03 306.834 181.631C305.251 182.173 303.646 182.65 302.024 183.06C301.671 179.052 301.337 175.042 301.024 171.031H299.389C299.711 175.173 300.055 179.313 300.422 183.451C298.464 183.901 296.492 184.283 294.508 184.596C294.354 180.076 294.224 175.554 294.12 171.032H292.49L292.541 173.224C292.632 176.907 292.746 180.788 292.885 184.839C288.613 185.442 285.597 185.579 285.525 185.582L285.566 186.581H292.327L292.943 186.498L292.947 186.581H294.578L294.566 186.258C296.424 185.97 298.458 185.596 300.568 185.113C300.612 185.6 300.655 186.088 300.701 186.581H302.338L302.171 184.727C303.835 184.309 305.481 183.825 307.105 183.274C307.286 184.359 307.473 185.466 307.661 186.581H309.315C309.093 185.272 308.876 183.983 308.665 182.716C310.405 182.061 312.101 181.315 313.693 180.46L313.875 181.22C314.293 182.96 314.73 184.757 315.177 186.581H316.856C316.378 184.634 315.911 182.718 315.466 180.866C314.505 176.862 313.565 172.854 312.646 168.841C312.471 169.57 312.015 170.201 311.377 170.595ZM327.554 233.215C326.15 234.002 324.71 234.723 323.239 235.376C323.063 236.038 322.896 236.702 322.737 237.368C324.539 236.614 326.3 235.765 328.013 234.827C329.637 240.489 331.297 246.14 332.994 251.781C329.924 253.49 326.574 254.949 323.119 256.198C322.42 253.102 321.731 250.003 321.053 246.902C320.841 248.744 320.692 250.593 320.608 252.446C320.925 253.87 321.244 255.299 321.571 256.742C321.225 256.86 320.878 256.976 320.531 257.09C320.537 257.655 320.55 258.22 320.568 258.785C321.025 258.638 321.481 258.489 321.935 258.335C323.186 263.836 324.472 269.329 325.793 274.813C324.847 275.13 323.897 275.433 322.944 275.721C323.076 276.246 323.214 276.77 323.358 277.293C324.3 277.009 325.241 276.712 326.177 276.4C327.512 281.916 328.881 287.424 330.285 292.923C330.052 293.002 329.819 293.079 329.586 293.156C329.841 293.643 330.099 294.128 330.364 294.611L330.691 294.502L331.014 295.761C331.926 297.354 332.894 298.915 333.915 300.441C333.347 298.27 332.788 296.114 332.238 293.97C336.572 292.438 340.778 290.612 344.595 288.444C346.468 294.087 348.378 299.716 350.326 305.333C348.197 306.512 346.013 307.589 343.781 308.56C344.44 308.767 345.037 309.112 345.544 309.557C347.353 308.739 349.129 307.851 350.869 306.895C352.617 311.918 354.394 316.93 356.201 321.931C353.466 323.518 350.549 324.952 347.525 326.247C348.389 326.274 349.233 326.513 349.983 326.943C352.298 325.899 354.562 324.745 356.767 323.485C358.832 329.171 360.964 334.926 363.171 340.746C363.658 340.492 364.138 340.223 364.61 339.94C348.333 296.986 335.969 257.453 326.873 224.796C326.526 225.617 326.194 226.443 325.874 227.275C326.43 229.256 326.99 231.236 327.554 233.215ZM323.484 257.795C326.97 256.546 330.358 255.084 333.476 253.375C335.043 258.559 336.678 263.861 338.388 269.278C334.995 271.245 331.229 272.895 327.341 274.278C326.021 268.791 324.735 263.297 323.484 257.795ZM331.83 292.387C330.427 286.889 329.059 281.383 327.726 275.868C331.644 274.484 335.446 272.833 338.891 270.868C340.584 276.211 342.311 281.544 344.07 286.866C340.303 289.034 336.134 290.856 331.83 292.387ZM334.007 331.019C334.024 331.194 334.034 331.37 334.034 331.55C334.034 331.96 333.983 332.359 333.894 332.743C336.108 332.11 338.321 331.421 340.513 330.671C340.945 332.178 341.383 333.691 341.824 335.208C341.847 335.178 341.869 335.144 341.891 335.115C342.126 334.763 342.43 334.469 342.776 334.241C342.1 333.104 341.876 331.755 342.148 330.461L342.053 330.131L342.251 330.059C342.495 329.228 342.938 328.47 343.543 327.849C342.9 328.093 342.253 328.33 341.604 328.563C341.113 326.843 340.626 325.128 340.147 323.42H338.452C338.985 325.316 339.522 327.211 340.063 329.105C338.06 329.791 336.041 330.43 334.007 331.019ZM298.594 339.201C299.937 339.072 301.438 338.914 303.072 338.724C303.228 338.073 303.406 337.511 303.597 337.022C301.791 337.239 299.981 337.433 298.17 337.606C298.326 338.077 298.468 338.604 298.594 339.201ZM315.64 335.238C315.925 335.625 316.212 336.112 316.479 336.74C318.605 336.358 320.725 335.941 322.838 335.49L322.878 335.682C323.006 335.472 323.135 335.28 323.264 335.116C323.497 334.768 323.798 334.471 324.149 334.241C323.665 333.427 323.41 332.498 323.409 331.55C323.409 331.225 323.443 330.908 323.499 330.599C323.01 328.193 322.532 325.801 322.062 323.421H320.401C321.089 326.916 321.791 330.409 322.508 333.899C320.226 334.385 317.937 334.832 315.64 335.238ZM176.647 305.979C175.867 306.014 175.227 307.505 173.737 308.889C172.247 310.273 171.076 309.634 171.076 309.634C171.076 309.634 171.325 311.054 172.425 311.409C172.959 311.581 173.869 311.761 175.004 311.902C174.824 312.504 174.777 313.139 174.864 313.761C174.952 314.384 175.172 314.981 175.511 315.51C175.85 316.04 176.299 316.491 176.827 316.832C177.355 317.173 177.951 317.396 178.573 317.486C179.196 317.577 179.83 317.532 180.434 317.355C181.037 317.178 181.595 316.874 182.071 316.462C182.546 316.05 182.927 315.541 183.188 314.969C183.449 314.396 183.583 313.775 183.583 313.146C183.583 312.713 183.518 312.296 183.401 311.902C184.535 311.761 185.444 311.581 185.98 311.409C187.08 311.054 187.328 309.634 187.328 309.634C187.328 309.634 186.157 310.273 184.667 308.889C183.177 307.505 182.538 306.014 181.757 305.979C180.976 305.944 180.338 306.649 179.202 306.756C178.066 306.649 177.428 305.943 176.647 305.979Z" fill="#0D0C0C"/>
<path d="M184.468 321.472L195.768 310.604C195.915 310.462 196.033 310.293 196.115 310.106C196.197 309.918 196.241 309.717 196.245 309.512C196.249 309.308 196.213 309.104 196.138 308.914C196.064 308.723 195.953 308.549 195.811 308.402C195.669 308.255 195.5 308.137 195.312 308.055C195.125 307.973 194.923 307.928 194.719 307.924C194.514 307.92 194.311 307.957 194.12 308.031C193.93 308.106 193.756 308.217 193.609 308.359L182.923 318.635H175.481L166.699 310.19C166.688 309.839 166.584 309.497 166.398 309.199C166.114 308.75 165.652 308.429 165.02 308.236C169.957 300.603 172.911 297.29 176.564 295.005C177.35 292.021 178.959 290.005 181.057 289.191C178.828 288.933 176.009 288.945 170.652 295.922C168.077 299.276 164.001 306.426 163.287 307.964C162.678 307.85 162.273 307.635 162.102 307.33C161.85 306.877 162.154 306.289 162.157 306.284L161.392 305.872C161.37 305.913 160.861 306.873 161.34 307.744C161.433 307.914 161.556 308.066 161.707 308.199C161.898 308.369 162.141 308.505 162.423 308.615C162.278 308.832 162.189 309.083 162.165 309.343C162.142 309.603 162.184 309.866 162.288 310.105L160.798 312.694L160.645 312.606C160.427 312.48 160.145 312.555 160.019 312.773C159.893 312.991 159.968 313.272 160.187 313.398L161.647 314.243C161.865 314.37 162.147 314.295 162.273 314.077C162.399 313.859 162.324 313.577 162.106 313.451L161.883 313.322L163.159 311.106L173.935 321.471V331.386L171.679 340.49C176.241 341.168 181.387 341.79 187.182 342.342L184.467 331.388V321.472H184.468ZM297.107 344.8C297.081 339.191 295.91 337.019 295.299 336.275C295.158 336.038 294.936 335.86 294.674 335.775C293.753 336.48 292.625 336.863 291.465 336.863C290.305 336.862 289.178 336.48 288.257 335.775C287.995 335.86 287.773 336.038 287.632 336.275C287.015 337.026 285.829 339.229 285.824 344.949C289.658 344.906 293.426 344.855 297.107 344.8ZM291.465 334.869C291.905 334.875 292.342 334.794 292.75 334.63C293.158 334.466 293.53 334.223 293.843 333.914C294.157 333.605 294.405 333.237 294.575 332.831C294.745 332.425 294.832 331.989 294.832 331.549C294.832 331.109 294.745 330.674 294.575 330.268C294.405 329.862 294.157 329.494 293.843 329.185C293.53 328.876 293.158 328.633 292.75 328.468C292.342 328.304 291.905 328.223 291.465 328.229C290.593 328.242 289.76 328.597 289.148 329.218C288.535 329.839 288.192 330.677 288.192 331.549C288.192 332.422 288.535 333.259 289.148 333.88C289.76 334.502 290.593 334.857 291.465 334.869ZM315.733 344.485C315.666 339.108 314.527 337.005 313.927 336.275C313.785 336.038 313.563 335.86 313.301 335.775C312.38 336.48 311.253 336.863 310.093 336.863C308.933 336.862 307.805 336.48 306.885 335.775C306.623 335.86 306.401 336.038 306.26 336.275C305.652 337.014 304.494 339.161 304.453 344.683C308.345 344.618 312.109 344.55 315.733 344.485ZM310.093 334.869C310.533 334.875 310.97 334.794 311.378 334.63C311.787 334.466 312.158 334.222 312.471 333.913C312.785 333.605 313.033 333.236 313.203 332.83C313.373 332.425 313.46 331.989 313.46 331.549C313.46 331.109 313.373 330.673 313.203 330.268C313.033 329.862 312.784 329.494 312.471 329.185C312.158 328.876 311.786 328.632 311.378 328.468C310.969 328.304 310.533 328.223 310.093 328.229C309.22 328.242 308.388 328.597 307.775 329.218C307.163 329.84 306.82 330.677 306.82 331.55C306.82 332.422 307.163 333.259 307.776 333.881C308.389 334.502 309.221 334.857 310.093 334.869ZM334.36 344.173C334.255 339.019 333.144 336.991 332.555 336.275C332.414 336.038 332.192 335.86 331.93 335.775C331.037 336.454 329.927 336.863 328.722 336.863C327.516 336.863 326.406 336.454 325.514 335.775C325.252 335.861 325.029 336.038 324.888 336.275C324.293 336.999 323.166 339.07 323.082 344.352C327.171 344.281 330.943 344.218 334.36 344.173ZM328.722 334.869C329.162 334.875 329.598 334.794 330.007 334.63C330.415 334.466 330.786 334.222 331.1 333.913C331.413 333.605 331.662 333.236 331.831 332.83C332.001 332.425 332.089 331.989 332.089 331.549C332.088 331.109 332.001 330.673 331.831 330.268C331.661 329.862 331.412 329.494 331.099 329.185C330.786 328.876 330.414 328.632 330.006 328.468C329.598 328.304 329.161 328.223 328.721 328.229C327.849 328.242 327.016 328.597 326.404 329.218C325.791 329.84 325.448 330.677 325.448 331.55C325.448 332.422 325.792 333.259 326.404 333.881C327.017 334.502 327.849 334.857 328.722 334.869ZM347.754 344.126C349.499 344.153 351.244 344.059 352.976 343.844C352.831 338.939 351.759 336.975 351.183 336.275C351.042 336.038 350.82 335.86 350.558 335.775C349.665 336.454 348.556 336.863 347.35 336.863C346.144 336.863 345.034 336.454 344.141 335.775C343.879 335.861 343.657 336.038 343.516 336.275C342.93 336.988 341.827 339.002 341.714 344.105C343.727 344.093 345.741 344.1 347.754 344.126Z" fill="#0D0C0C"/>
<path d="M347.798 334.864C349.608 334.57 350.836 332.864 350.542 331.054C350.247 329.244 348.541 328.015 346.731 328.31C344.921 328.605 343.693 330.311 343.987 332.121C344.282 333.931 345.988 335.159 347.798 334.864Z" fill="#0D0C0C"/>
<path d="M202.269 335.775C201.376 336.454 200.266 336.863 199.06 336.863C197.854 336.863 196.745 336.454 195.852 335.775C195.59 335.861 195.368 336.038 195.226 336.275C194.689 336.929 193.719 338.678 193.473 342.894C196.992 343.175 200.723 343.433 204.68 343.664C204.513 338.893 203.462 336.966 202.894 336.274C202.753 336.038 202.531 335.86 202.269 335.775Z" fill="#0D0C0C"/>
<path d="M199.061 334.87C200.894 334.87 202.381 333.383 202.381 331.55C202.381 329.716 200.894 328.229 199.061 328.229C197.227 328.229 195.74 329.716 195.74 331.55C195.74 333.383 197.227 334.87 199.061 334.87Z" fill="#0D0C0C"/>
<path d="M220.897 335.774C220.004 336.454 218.895 336.862 217.689 336.862C216.483 336.862 215.373 336.454 214.48 335.774C214.218 335.86 213.996 336.038 213.855 336.274C213.271 336.985 212.174 338.989 212.054 344.053C215.766 344.228 219.53 344.376 223.328 344.502C223.264 339.112 222.123 337.005 221.522 336.274C221.381 336.038 221.159 335.86 220.897 335.774Z" fill="#0D0C0C"/>
<path d="M217.689 334.87C219.523 334.87 221.009 333.383 221.009 331.55C221.009 329.716 219.523 328.229 217.689 328.229C215.855 328.229 214.369 329.716 214.369 331.55C214.369 333.383 215.855 334.87 217.689 334.87Z" fill="#0D0C0C"/>
<path d="M239.525 335.774C238.632 336.454 237.523 336.862 236.317 336.862C235.111 336.862 234.001 336.454 233.108 335.774C232.846 335.86 232.624 336.037 232.483 336.274C231.875 337.014 230.713 339.169 230.676 344.716C234.421 344.81 238.187 344.884 241.959 344.94C241.953 339.226 240.767 337.024 240.151 336.274C240.009 336.038 239.787 335.86 239.525 335.774Z" fill="#0D0C0C"/>
<path d="M236.316 334.87C238.15 334.87 239.637 333.383 239.637 331.55C239.637 329.716 238.15 328.229 236.316 328.229C234.483 328.229 232.996 329.716 232.996 331.55C232.996 333.383 234.483 334.87 236.316 334.87Z" fill="#0D0C0C"/>
<path d="M258.153 335.774C257.232 336.479 256.105 336.862 254.945 336.862C253.785 336.862 252.657 336.479 251.737 335.774C251.475 335.86 251.253 336.037 251.112 336.274C250.492 337.028 249.297 339.247 249.303 345.027C253.075 345.062 256.841 345.08 260.587 345.085C260.601 339.26 259.4 337.031 258.778 336.274C258.637 336.038 258.415 335.86 258.153 335.774ZM254.945 334.869C255.385 334.875 255.821 334.794 256.23 334.63C256.638 334.466 257.01 334.223 257.323 333.914C257.636 333.605 257.885 333.237 258.055 332.831C258.225 332.425 258.312 331.989 258.312 331.549C258.312 331.109 258.225 330.674 258.055 330.268C257.885 329.862 257.636 329.494 257.323 329.185C257.01 328.876 256.638 328.632 256.23 328.468C255.821 328.304 255.385 328.223 254.945 328.229C254.072 328.242 253.24 328.597 252.627 329.218C252.015 329.839 251.671 330.677 251.671 331.549C251.671 332.422 252.015 333.259 252.627 333.88C253.24 334.502 254.072 334.857 254.945 334.869ZM279.899 345.009L279.499 323.42H265.388L264.985 345.087C270.02 345.08 275.003 345.052 279.899 345.009ZM275.103 86.7205H269.782L269.698 91.2771H275.187L275.103 86.7205ZM276.957 186.58L276.669 171.03H268.217L267.928 186.58H276.957ZM222.575 394.246C226.926 394.246 230.464 390.706 230.464 386.356C230.464 382.005 226.925 378.467 222.575 378.467C218.225 378.467 214.686 382.005 214.686 386.356C214.686 390.707 218.225 394.246 222.575 394.246ZM172.704 394.246C177.055 394.246 180.594 390.706 180.594 386.356C180.594 382.005 177.054 378.467 172.704 378.467C168.354 378.467 164.815 382.005 164.815 386.356C164.816 390.707 168.354 394.246 172.704 394.246ZM272.446 394.246C276.796 394.246 280.335 390.706 280.335 386.356C280.335 382.005 276.796 378.467 272.446 378.467C268.096 378.467 264.556 382.005 264.556 386.356C264.557 390.707 268.096 394.246 272.446 394.246ZM322.316 378.467C317.966 378.467 314.427 382.005 314.427 386.356C314.427 390.707 317.966 394.246 322.316 394.246C326.666 394.246 330.206 390.706 330.206 386.356C330.206 382.006 326.667 378.467 322.316 378.467ZM372.187 394.246C376.537 394.246 380.076 390.706 380.076 386.356C380.076 382.005 376.537 378.467 372.187 378.467C367.836 378.467 364.297 382.005 364.297 386.356C364.298 390.707 367.837 394.246 372.187 394.246ZM164.857 287.139C165.437 287.139 165.912 286.665 165.912 286.085V282.658C165.912 282.078 165.437 281.604 164.857 281.604H162.372C143.592 260.756 144.043 228.744 163.703 208.42H164.857C165.437 208.42 165.912 207.945 165.912 207.365V203.939C165.912 203.359 165.437 202.884 164.857 202.884H87.6307C87.0507 202.884 86.5764 203.359 86.5764 203.939V207.365C86.5764 207.706 86.7425 208.007 86.9949 208.2H119.918V209.781H86.5432C68.5294 229.718 68.1215 259.895 85.3381 280.286H119.918V281.867H86.7212C86.7571 281.906 86.7896 281.947 86.8255 281.987C86.6727 282.17 86.5764 282.402 86.5764 282.658V286.085C86.5764 286.665 87.0507 287.139 87.6307 287.139H164.857ZM131.12 208.2H137.116V209.781H131.12V208.2ZM131.12 280.287H137.116V281.868H131.12V280.287ZM122.29 208.2H128.286V209.781H122.29V208.2ZM99.5652 232.99C101.803 227.081 111.1 223.296 117.439 223.312C123.852 223.296 124.894 227.081 122.655 232.99C120.915 237.423 117.807 241.438 113.64 243.136C113.634 244.068 113.673 244.999 113.759 245.927C113.843 246.813 113.289 247.534 112.471 247.534H112.298C111.48 247.534 110.691 246.814 110.607 245.927C110.546 245.262 110.508 244.594 110.494 243.926C110.072 243.97 109.643 243.997 109.205 243.994C108.779 243.996 108.353 243.974 107.929 243.93C107.946 244.597 107.978 245.263 108.042 245.928C108.128 246.814 107.572 247.535 106.754 247.535H106.58C105.76 247.535 104.973 246.815 104.89 245.928C104.804 245.003 104.765 244.075 104.77 243.146C100.587 241.452 97.8227 237.431 99.5652 232.99ZM104.916 260.474C106.168 261.51 106.642 262.612 105.88 262.988C105.12 263.364 103.337 262.918 101.993 261.934C101.063 261.254 100.636 260.482 100.734 259.926C99.8821 259.846 98.8245 259.389 98.0147 258.646C96.8421 257.571 96.7173 256.295 97.64 255.84C98.5647 255.383 100.111 255.947 101.189 257.061C101.326 257.203 101.45 257.348 101.561 257.491C103.488 256.53 105.474 255.544 107.526 254.535C103.901 253.29 100.296 251.989 96.7113 250.632C96.7285 250.791 96.7325 250.949 96.7199 251.104C96.6189 252.305 95.55 252.875 94.2347 252.402C92.922 251.93 91.9348 250.573 92.1308 249.354C92.263 248.511 92.8921 247.974 93.6693 247.879C93.0495 247.225 92.7439 246.301 92.9977 245.444C93.3624 244.205 94.6705 243.599 95.8211 244.096C96.9743 244.591 97.6088 246 97.3364 247.231C97.3035 247.381 97.255 247.526 97.1916 247.665C101.728 249.491 106.299 251.231 110.902 252.885C114.553 251.11 118.222 249.372 121.908 247.671C121.801 247.533 121.706 247.386 121.625 247.231C120.986 246 121.462 244.592 122.596 244.096C123.731 243.599 125.021 244.205 125.568 245.444C125.945 246.301 125.898 247.225 125.494 247.879C126.299 247.975 127.108 248.511 127.607 249.354C128.326 250.573 128.2 251.93 127.225 252.402C126.254 252.875 124.729 252.305 123.915 251.104C123.816 250.958 123.73 250.803 123.658 250.641C120.969 251.922 118.288 253.22 115.615 254.535C118.591 255.556 121.58 256.538 124.582 257.48C124.527 257.346 124.488 257.205 124.466 257.061C124.299 255.946 125.35 255.382 126.712 255.839C128.077 256.295 129.313 257.571 129.573 258.645C129.751 259.388 129.369 259.845 128.64 259.925C129.565 260.481 130.346 261.254 130.645 261.933C131.075 262.917 130.264 263.363 128.736 262.988C127.213 262.612 125.623 261.509 125.286 260.473C125.246 260.352 125.223 260.225 125.22 260.097C120.903 258.864 116.61 257.548 112.344 256.15C109.701 257.463 107.059 258.781 104.421 260.104C104.591 260.219 104.756 260.342 104.916 260.474ZM122.29 281.868V280.287H128.286V281.868H122.29Z" fill="#0D0C0C"/>
<path d="M104.936 238.721C106.81 238.728 108.66 236.013 109.916 232.856C111.151 229.693 111.318 227.383 109.444 227.383C107.592 227.382 104.407 229.693 103.172 232.856C101.916 236.014 103.085 238.729 104.936 238.721ZM114.172 238.721C116.045 238.728 117.896 236.013 119.152 232.856C120.385 229.693 120.554 227.383 118.68 227.383C116.83 227.382 113.643 229.693 112.408 232.856C111.151 236.014 112.32 238.729 114.172 238.721ZM238.192 162.952H269.371V164.378H239.439C239.472 164.414 239.503 164.453 239.536 164.489C239.4 164.654 239.315 164.861 239.315 165.091V168.179C239.315 168.702 239.743 169.13 240.266 169.13H309.881C310.404 169.13 310.832 168.702 310.832 168.179V165.091C310.832 164.568 310.404 164.14 309.881 164.14H307.64C290.712 145.348 291.11 116.489 308.827 98.1675H309.881C310.404 98.1675 310.832 97.7396 310.832 97.2168V94.1284C310.832 93.6056 310.404 93.1777 309.881 93.1777H240.265C239.742 93.1777 239.315 93.6056 239.315 94.1284V97.2168C239.315 97.5237 239.465 97.7954 239.692 97.9695H269.37V99.3951H239.271C223.039 117.368 222.675 144.572 238.192 162.952ZM274.463 131.544C274.803 132.316 274.761 133.149 274.397 133.739C275.122 133.825 275.852 134.309 276.301 135.069C276.95 136.168 276.834 137.391 275.957 137.817C275.08 138.243 273.706 137.728 272.973 136.646C272.884 136.514 272.806 136.375 272.741 136.229C270.317 137.384 267.9 138.554 265.491 139.739C268.173 140.659 270.868 141.545 273.574 142.394C273.524 142.273 273.489 142.146 273.469 142.016C273.321 141.011 274.267 140.503 275.494 140.915C276.725 141.325 277.84 142.476 278.073 143.444C278.233 144.114 277.889 144.526 277.232 144.598C278.066 145.1 278.77 145.796 279.04 146.408C279.428 147.295 278.696 147.697 277.32 147.359C275.945 147.02 274.514 146.026 274.21 145.092C274.173 144.983 274.153 144.869 274.151 144.754C270.259 143.642 266.39 142.456 262.544 141.195C260.055 142.43 257.674 143.622 255.401 144.759C255.554 144.862 255.703 144.973 255.848 145.092C256.976 146.026 257.402 147.019 256.716 147.358C256.031 147.697 254.423 147.295 253.212 146.408C252.372 145.795 251.987 145.099 252.076 144.598C251.308 144.525 250.354 144.113 249.626 143.444C248.568 142.475 248.456 141.325 249.287 140.914C250.121 140.502 251.513 141.01 252.487 142.015C252.61 142.144 252.722 142.273 252.822 142.403C254.559 141.536 256.35 140.648 258.199 139.739C254.932 138.616 251.682 137.443 248.451 136.22C248.466 136.364 248.47 136.507 248.458 136.646C248.367 137.728 247.403 138.242 246.218 137.817C245.034 137.391 244.146 136.168 244.321 135.069C244.44 134.309 245.008 133.825 245.709 133.739C245.151 133.149 244.873 132.316 245.103 131.544C245.432 130.427 246.611 129.881 247.648 130.329C248.686 130.776 249.259 132.045 249.014 133.155C248.985 133.289 248.941 133.42 248.884 133.546C252.974 135.192 257.094 136.761 261.243 138.251C264.534 136.651 267.842 135.084 271.165 133.551C271.068 133.427 270.982 133.295 270.909 133.155C270.33 132.046 270.764 130.776 271.784 130.329C272.809 129.882 273.969 130.427 274.463 131.544ZM271.838 120.317C270.269 124.312 267.467 127.931 263.71 129.462C263.705 130.302 263.741 131.142 263.818 131.979C263.893 132.777 263.395 133.427 262.657 133.427H262.501C261.763 133.427 261.053 132.777 260.977 131.979C260.921 131.379 260.887 130.777 260.874 130.174C260.494 130.214 260.108 130.238 259.713 130.236C259.328 130.237 258.944 130.218 258.562 130.178C258.577 130.779 258.606 131.38 258.664 131.979C258.741 132.777 258.242 133.427 257.502 133.427H257.346C256.608 133.427 255.899 132.777 255.822 131.979C255.745 131.145 255.709 130.308 255.715 129.471C251.943 127.944 249.451 124.318 251.023 120.316C253.038 114.989 261.423 111.577 267.136 111.591C272.919 111.577 273.854 114.989 271.838 120.317Z" fill="#0D0C0C"/>
<path d="M255.865 125.482C257.554 125.489 259.222 123.042 260.355 120.196C261.468 117.344 261.618 115.262 259.93 115.262C258.26 115.262 255.388 117.344 254.276 120.196C253.143 123.042 254.195 125.49 255.865 125.482ZM264.19 125.482C265.88 125.489 267.546 123.042 268.68 120.196C269.792 117.344 269.944 115.262 268.255 115.262C266.586 115.262 263.714 117.344 262.601 120.196C261.469 123.042 262.521 125.49 264.19 125.482ZM222.875 189.841C222.442 189.843 222.028 190.015 221.723 190.32C221.417 190.626 221.245 191.04 221.244 191.472V196.772C221.244 197.299 221.501 197.765 221.891 198.063H272.814V200.509H221.148C193.304 231.345 192.69 278.025 219.307 309.56H272.813V312.006H221.452C221.509 312.069 221.565 312.134 221.623 312.197C221.38 312.486 221.245 312.851 221.243 313.229V318.529C221.244 318.961 221.416 319.375 221.722 319.681C222.028 319.986 222.442 320.159 222.874 320.16H342.32C342.752 320.158 343.166 319.986 343.472 319.681C343.778 319.375 343.95 318.961 343.951 318.529V313.229C343.95 312.797 343.778 312.383 343.472 312.077C343.166 311.772 342.752 311.599 342.32 311.598H338.474C309.429 279.356 310.111 229.839 340.509 198.402H342.32C342.752 198.401 343.166 198.229 343.471 197.923C343.777 197.618 343.949 197.204 343.951 196.771V191.471C343.949 191.039 343.777 190.625 343.471 190.32C343.166 190.014 342.752 189.842 342.32 189.841L222.875 189.841ZM299.414 312.005H290.14V309.559H299.414V312.005ZM290.14 198.063H299.414V200.509H290.14V198.063ZM276.483 198.063H285.757V200.509H276.483V198.063ZM241.333 236.406C244.791 227.265 259.177 221.411 268.98 221.435C278.901 221.411 280.506 227.265 277.047 236.406C274.356 243.261 269.547 249.473 263.103 252.1C263.093 253.541 263.155 254.981 263.288 256.416C263.417 257.787 262.562 258.901 261.296 258.901H261.028C259.761 258.901 258.544 257.787 258.413 256.416C258.318 255.388 258.26 254.357 258.238 253.324C257.586 253.393 256.922 253.43 256.245 253.425C255.58 253.429 254.921 253.394 254.27 253.326C254.296 254.357 254.346 255.388 254.445 256.416C254.577 257.787 253.721 258.901 252.453 258.901H252.184C250.918 258.901 249.701 257.787 249.57 256.416C249.437 254.986 249.376 253.55 249.385 252.114C242.914 249.495 238.638 243.273 241.333 236.406ZM285.757 312.005H276.483V309.559H285.757V312.005ZM281.117 278.915C281.053 278.728 281.019 278.532 281.013 278.334C274.337 276.427 267.697 274.391 261.099 272.228C256.828 274.347 252.743 276.392 248.844 278.344C249.106 278.521 249.362 278.711 249.61 278.915C251.545 280.518 252.277 282.222 251.1 282.805C249.924 283.385 247.166 282.696 245.088 281.174C243.65 280.125 242.97 278.926 243.119 278.066C241.804 277.936 240.178 277.231 238.935 276.088C237.12 274.427 236.928 272.453 238.355 271.748C239.785 271.041 242.174 271.913 243.843 273.637C244.056 273.857 244.247 274.08 244.419 274.302C247.399 272.815 250.472 271.29 253.645 269.731C248.039 267.805 242.463 265.792 236.919 263.694C236.946 263.94 236.952 264.185 236.932 264.425C236.776 266.281 235.12 267.164 233.087 266.433C231.056 265.703 229.532 263.604 229.833 261.717C230.037 260.424 230.992 259.58 232.18 259.424C231.236 258.413 230.783 256.985 231.173 255.669C231.739 253.754 233.761 252.817 235.541 253.585C237.322 254.351 238.306 256.53 237.885 258.434C237.832 258.674 237.756 258.899 237.662 259.106C244.678 261.931 251.748 264.622 258.867 267.179C264.514 264.434 270.189 261.745 275.89 259.115C275.724 258.902 275.577 258.674 275.452 258.434C274.459 256.53 275.202 254.352 276.954 253.585C278.712 252.817 280.703 253.754 281.55 255.669C282.131 256.988 282.062 258.41 281.446 259.422C282.688 259.572 283.936 260.418 284.704 261.717C285.817 263.604 285.62 265.703 284.112 266.433C282.608 267.164 280.251 266.281 278.993 264.425C278.839 264.199 278.706 263.959 278.595 263.709C274.298 265.755 270.148 267.768 266.155 269.731C270.757 271.311 275.38 272.829 280.023 274.287C279.938 274.079 279.877 273.861 279.843 273.638C279.589 271.913 281.211 271.042 283.318 271.749C285.428 272.454 287.343 274.427 287.743 276.089C288.017 277.235 287.443 277.955 286.321 278.082C287.743 278.941 288.941 280.128 289.401 281.175C290.067 282.697 288.811 283.386 286.45 282.806C284.092 282.222 281.637 280.518 281.117 278.915Z" fill="#0D0C0C"/>
<path d="M249.64 245.27C252.538 245.281 255.4 241.082 257.344 236.199C259.254 231.306 259.511 227.733 256.614 227.735C253.749 227.733 248.821 231.306 246.913 236.199C244.971 241.081 246.776 245.281 249.64 245.27ZM263.926 245.27C266.825 245.281 269.685 241.082 271.629 236.199C273.538 231.306 273.797 227.733 270.9 227.735C268.036 227.733 263.109 231.306 261.199 236.199C259.256 241.081 261.061 245.281 263.926 245.27ZM68.2032 318.83H59.2714C58.6616 318.83 58.162 319.329 58.162 319.939V327.011C58.162 327.428 58.3979 327.788 58.74 327.978H91.2804V330.612H66.379C67.5044 331.934 68.6098 333.473 69.494 335.179H103.384V337.813H70.6094C70.7642 338.283 70.9044 338.758 71.014 339.244C71.6179 341.916 72.2297 345.557 72.9379 349.774C76.9803 373.828 84.5044 418.604 113.669 424.096C156.225 432.11 338.611 430.351 407.272 429.687C418.602 429.578 427.065 429.497 431.917 429.483C432.743 401.408 459.196 352.576 473.287 330.36C478.623 321.947 481.118 314.742 482.2 309.133H455.904V306.499H482.625C482.897 304.385 482.967 302.557 482.931 301.051H410.372V298.416H489.796C490.01 298.339 490.196 298.198 490.328 298.012C490.46 297.826 490.531 297.604 490.532 297.376V290.305C490.532 289.695 490.034 289.195 489.423 289.195H485.72V278.052C485.72 278.006 485.71 277.962 485.706 277.916H490.523C490.955 277.915 491.369 277.743 491.675 277.437C491.98 277.131 492.153 276.717 492.154 276.285V275.742C492.153 275.31 491.981 274.896 491.675 274.59C491.369 274.284 490.955 274.112 490.523 274.111H377.642C377.209 274.112 376.795 274.285 376.49 274.59C376.184 274.896 376.012 275.31 376.011 275.742V276.285C376.012 276.718 376.184 277.132 376.49 277.437C376.795 277.743 377.209 277.915 377.642 277.916H382.459C382.455 277.962 382.445 278.006 382.445 278.052V289.195H378.967C378.357 289.195 377.858 289.694 377.858 290.305V297.377C377.858 297.987 378.356 298.486 378.967 298.486H385.996C385.738 305.866 383.911 325.468 372.118 337.391C365.813 343.766 357.625 346.913 347.715 346.783C341.003 346.684 330.418 346.876 317.018 347.118C232.63 348.643 142.46 348.522 135.621 328.12H137.621C137.9 328.12 138.153 328.011 138.349 327.839C138.581 327.635 138.73 327.341 138.73 327.01V322.015C145.13 311.853 151.815 300.773 158.629 289.131H156.741C150.515 299.754 144.4 309.897 138.516 319.29C138.414 319.148 138.28 319.032 138.124 318.952C137.968 318.872 137.796 318.83 137.621 318.829H134.201L133.78 289.132H125.342L124.921 318.829H119.425C120.623 317.328 121.812 315.82 122.992 314.305L123.03 311.595C121.155 314.024 119.257 316.435 117.337 318.829H108.156V313.285L111.196 313.342C111.527 313.348 111.856 313.288 112.164 313.166C112.472 313.043 112.752 312.861 112.988 312.629C113.225 312.397 113.413 312.12 113.541 311.815C113.669 311.509 113.735 311.181 113.735 310.85V306.78C113.734 306.449 113.668 306.121 113.54 305.816C113.412 305.511 113.224 305.234 112.988 305.002C112.752 304.77 112.472 304.587 112.164 304.465C111.856 304.342 111.527 304.282 111.196 304.289L103.944 304.424V301.425L72.6894 295.718V305.011L2.44536 306.325C1.79444 306.34 1.17524 306.609 0.720188 307.074C0.265139 307.54 0.0103703 308.165 0.0103703 308.817C0.0103703 309.468 0.265139 310.093 0.720188 310.559C1.17524 311.024 1.79444 311.293 2.44536 311.308L68.2032 312.539V318.83ZM434.852 306.499H442.508V309.134H434.852V306.499ZM452.268 309.134H446.144V306.499H452.268V309.134ZM481.929 277.916C481.925 277.962 481.915 278.006 481.915 278.052V289.195H471.51V278.052C471.51 278.006 471.5 277.962 471.496 277.916H481.929ZM467.719 277.916C467.715 277.962 467.705 278.006 467.705 278.052V289.195H457.3V278.052C457.3 278.006 457.29 277.962 457.286 277.916H467.719ZM453.508 277.916C453.504 277.962 453.495 278.006 453.495 278.052V289.195H443.089V278.052C443.089 278.006 443.079 277.962 443.075 277.916H453.508ZM439.299 277.916C439.295 277.962 439.285 278.006 439.285 278.052V289.195H437.749L437.607 279.139H430.102V289.195H428.879V278.052C428.879 278.006 428.869 277.962 428.865 277.916H439.299ZM425.089 277.916C425.085 277.962 425.075 278.006 425.075 278.052V289.195H414.67V278.052C414.67 278.006 414.66 277.962 414.656 277.916H425.089ZM410.878 277.916C410.874 277.962 410.864 278.006 410.864 278.052V289.195H400.459V278.052C400.459 278.006 400.449 277.962 400.445 277.916H410.878ZM386.235 277.916H396.668C396.664 277.962 396.654 278.006 396.654 278.052V289.195H386.249V278.052C386.249 278.006 386.239 277.962 386.235 277.916ZM322.317 397.771C316.012 397.771 310.903 392.661 310.903 386.357C310.903 380.052 316.013 374.942 322.317 374.942C328.621 374.942 333.731 380.053 333.731 386.357C333.731 392.661 328.621 397.771 322.317 397.771ZM372.188 374.942C378.492 374.942 383.602 380.052 383.602 386.356C383.602 392.661 378.491 397.771 372.188 397.771C365.883 397.771 360.772 392.66 360.772 386.356C360.772 380.052 365.883 374.942 372.188 374.942ZM272.446 374.942C278.751 374.942 283.861 380.052 283.861 386.356C283.861 392.661 278.75 397.771 272.446 397.771C266.142 397.771 261.031 392.66 261.031 386.356C261.031 380.052 266.142 374.942 272.446 374.942ZM222.576 374.942C228.88 374.942 233.99 380.052 233.99 386.356C233.99 392.661 228.879 397.771 222.576 397.771C216.271 397.771 211.161 392.66 211.161 386.356C211.161 380.052 216.271 374.942 222.576 374.942ZM172.705 374.942C179.009 374.942 184.119 380.052 184.119 386.356C184.119 392.661 179.009 397.771 172.705 397.771C166.401 397.771 161.291 392.66 161.291 386.356C161.29 380.052 166.401 374.942 172.705 374.942ZM106.41 330.612V327.978H115.057V330.612H106.41ZM127.16 335.179V337.814H118.515V335.179H127.16ZM95.3873 327.978H102.304V330.613H95.3873V327.978ZM98.8291 356.731C91.9056 357.769 85.6696 356.717 84.9003 354.382C84.131 352.047 89.1201 349.313 96.0436 348.275C102.967 347.238 109.203 348.289 109.972 350.624C110.742 352.959 105.753 355.694 98.8291 356.731ZM107.491 337.813V335.179H114.408V337.813H107.491ZM365.353 97.8552C366.911 95.1972 371.78 88.7214 377.719 90.0096C371.398 82.8947 364.295 93.7563 364.295 93.7563C364.295 93.7563 352.825 87.6864 350.736 96.9723C355.309 92.9704 362.705 96.2834 365.353 97.8552ZM392.675 109.604C394.232 106.945 399.103 100.469 405.04 101.757C398.719 94.6419 391.617 105.504 391.617 105.504C391.617 105.504 380.145 99.4343 378.057 108.72C382.631 104.717 390.026 108.031 392.675 109.604ZM397.046 78.1846C398.602 75.5253 403.472 69.0482 409.413 70.339C403.091 63.2214 395.988 74.0844 395.988 74.0844C395.988 74.0844 384.517 68.0152 382.429 77.3011C387.003 73.2985 394.397 76.6115 397.046 78.1846ZM57.9939 158.973C59.5518 156.315 64.4213 149.839 70.3603 151.127C64.0386 144.012 56.9363 154.874 56.9363 154.874C56.9363 154.874 45.4668 148.804 43.3769 158.09C47.9501 154.088 55.3453 157.401 57.9939 158.973ZM85.3155 170.722C86.8727 168.063 91.7428 161.587 97.6805 162.875C91.3595 155.759 84.2572 166.621 84.2572 166.621C84.2572 166.621 72.7857 160.552 70.6978 169.838C75.2716 165.835 82.6662 169.148 85.3155 170.722ZM89.6867 139.302C91.2426 136.643 96.1121 130.166 102.053 131.457C95.7314 124.339 88.6291 135.202 88.6291 135.202C88.6291 135.202 77.1576 129.133 75.0697 138.419C79.6442 134.416 87.0374 137.729 89.6867 139.302ZM157.853 110.482C170.65 110.482 181.026 100.108 181.026 87.3084C181.026 74.5109 170.65 64.1349 157.853 64.1349C145.054 64.1349 134.679 74.5109 134.679 87.3084C134.679 100.109 145.054 110.482 157.853 110.482ZM157.853 68.5506C168.194 68.5506 176.609 76.9669 176.609 87.3131C176.609 97.6552 168.194 106.064 157.853 106.064C147.507 106.064 139.096 97.6546 139.096 87.3131C139.096 76.9669 147.507 68.5506 157.853 68.5506ZM40.7282 419.259H57.9209V420.664H40.7282V419.259ZM19.4301 419.259H31.7911V420.664H19.4301V419.259ZM65.2683 419.259H90.9861V420.664H65.2683V419.259ZM440.167 419.259H457.36V420.664H440.167V419.259ZM494.807 419.259H512V420.664H494.807V419.259ZM463.805 419.259H488.25V420.664H463.805V419.259ZM299.389 450.136H358.416V451.541H299.389V450.136ZM373.532 450.136H438.876V451.541H373.532V450.136ZM225.652 450.136H284.68V451.541H225.652V450.136ZM153.468 450.136H212.496V451.541H153.468V450.136ZM70.527 450.136H141.051V451.541H70.527V450.136ZM79.0629 433.369H118.029V434.774H79.0629V433.369ZM38.6954 433.369H67.5416V434.774H38.6954V433.369ZM485.784 433.369H500.676V434.774H485.784V433.369ZM404.262 441.528H463.29V442.933H404.262V441.528ZM324.604 441.528H383.632V442.933H324.604V441.528ZM263.975 441.528H281.167V442.933H263.975V441.528ZM290.336 441.528H307.529V442.933H290.336V441.528ZM191.649 441.528H250.676V442.933H191.649V441.528ZM131.02 441.528H148.212V442.933H131.02V441.528ZM61.2823 441.528H114.649V442.933H61.2823V441.528ZM157.382 441.528H174.574V442.933H157.382V441.528ZM299.389 467.353H358.416V468.758H299.389V467.353ZM373.532 467.353H425.205V468.758H373.532V467.353ZM225.652 467.353H284.68V468.758H225.652V467.353ZM153.468 467.353H212.496V468.758H153.468V467.353ZM83.7145 467.353H142.742V468.758H83.7145V467.353ZM404.262 458.745H463.29V460.15H404.262V458.745ZM324.604 458.745H383.632V460.15H324.604V458.745ZM263.975 458.745H281.167V460.15H263.975V458.745ZM290.336 458.745H307.529V460.15H290.336V458.745ZM191.649 458.745H250.676V460.15H191.649V458.745ZM157.382 458.745H174.574V460.15H157.382V458.745ZM128.373 458.745H145.565V460.15H128.373V458.745ZM78.8311 458.745H115.228V460.15H78.8311V458.745ZM384.735 475.961H443.762V477.366H384.735V475.961ZM305.076 475.961H364.103V477.366H305.076V475.961ZM244.446 475.961H261.639V477.366H244.446V475.961ZM270.808 475.961H288.001V477.366H270.808V475.961ZM172.12 475.961H231.148V477.366H172.12V475.961ZM111.492 475.961H128.684V477.366H111.492V475.961ZM137.853 475.961H155.046V477.366H137.853V475.961ZM445.123 433.369H477.757V434.774H445.123V433.369Z" fill="#0D0C0C"/>
</svg>
